<?xml version="1.0" encoding="UTF-8" standalone="no"?>
<svg
   xmlns:dc="http://purl.org/dc/elements/1.1/"
   xmlns:cc="http://creativecommons.org/ns#"
   xmlns:rdf="http://www.w3.org/1999/02/22-rdf-syntax-ns#"
   xmlns:svg="http://www.w3.org/2000/svg"
   xmlns="http://www.w3.org/2000/svg"
   xmlns:sodipodi="http://sodipodi.sourceforge.net/DTD/sodipodi-0.dtd"
   xmlns:inkscape="http://www.inkscape.org/namespaces/inkscape"
   height="24"
   width="24"
   version="1.1"
   id="svg4"
   sodipodi:docname="line-thickness-symbolic.svg"
   inkscape:version="0.92.3 (2405546, 2018-03-11)">
  <metadata
     id="metadata10">
    <rdf:RDF>
      <cc:Work
         rdf:about="">
        <dc:format>image/svg+xml</dc:format>
        <dc:type
           rdf:resource="http://purl.org/dc/dcmitype/StillImage" />
        <dc:title />
      </cc:Work>
    </rdf:RDF>
  </metadata>
  <defs
     id="defs8">
    <marker
       style="overflow:visible;"
       id="Legs"
       refX="0.0"
       refY="0.0"
       orient="auto"
       inkscape:stockid="Legs">
      <g
         transform="scale(-0.7)"
         id="g1163">
        <g
           id="g2032"
           transform="matrix(-1.836909e-16,-1.000000,-1.000000,1.836909e-16,20.70862,21.31391)">
          <path
             style="fill:none;fill-opacity:0.75000000;fill-rule:evenodd;stroke:#000000;stroke-width:1.0000000pt;marker-start:none;marker-end:none;"
             d="M 21.221250,20.675360 C 14.311099,25.396517 18.766725,27.282204 15.380179,34.118595"
             id="path2019"
             sodipodi:nodetypes="cc" />
          <path
             style="fill:none;fill-opacity:0.75000000;fill-rule:evenodd;stroke:#000000;stroke-width:1.0000000pt;marker-start:none;marker-end:none;"
             d="M 21.398110,20.548120 C 20.037601,28.895644 24.934182,29.318060 25.903151,34.373078"
             id="path2026"
             sodipodi:nodetypes="cc" />
        </g>
        <path
           style="fill:#030300;fill-rule:evenodd;stroke-width:1.0000000pt;marker-end:none;"
           d="M -14.090070,-6.7318716 L -15.012238,-2.6884886 L -11.049487,-3.9115586 L -14.090070,-6.7318716 z "
           id="polygon2039" />
        <path
           style="fill:#030300;fill-rule:evenodd;stroke-width:1.0000000pt;marker-end:none;"
           d="M -15.215679,4.5567534 L -13.341552,8.2563664 L -11.074678,4.7835114 L -15.215679,4.5567534 z "
           id="path2041" />
      </g>
    </marker>
    <marker
       style="overflow:visible;"
       id="Tail"
       refX="0.0"
       refY="0.0"
       orient="auto"
       inkscape:stockid="Tail">
      <g
         transform="scale(-1.2)"
         id="g1087">
        <path
           style="fill:none;fill-rule:evenodd;stroke:#000000;stroke-width:0.8;marker-start:none;marker-end:none;stroke-linecap:round;"
           d="M -3.8048674,-3.9585227 L 0.54352094,-0.00068114835"
           id="path1126" />
        <path
           style="fill:none;fill-rule:evenodd;stroke:#000000;stroke-width:0.8;marker-start:none;marker-end:none;stroke-linecap:round;"
           d="M -1.2866832,-3.9585227 L 3.0617053,-0.00068114835"
           id="path1127" />
        <path
           style="fill:none;fill-rule:evenodd;stroke:#000000;stroke-width:0.8;marker-start:none;marker-end:none;stroke-linecap:round;"
           d="M 1.3053582,-3.9585227 L 5.6537466,-0.00068114835"
           id="path1956" />
        <path
           style="fill:none;fill-rule:evenodd;stroke:#000000;stroke-width:0.8;marker-start:none;marker-end:none;stroke-linecap:round;"
           d="M -3.8048674,4.1775838 L 0.54352094,0.21974226"
           id="path1848" />
        <path
           style="fill:none;fill-rule:evenodd;stroke:#000000;stroke-width:0.8;marker-start:none;marker-end:none;stroke-linecap:round;"
           d="M -1.2866832,4.1775838 L 3.0617053,0.21974226"
           id="path1849" />
        <path
           style="fill:none;fill-rule:evenodd;stroke:#000000;stroke-width:0.8;marker-start:none;marker-end:none;stroke-linecap:round;"
           d="M 1.3053582,4.1775838 L 5.6537466,0.21974226"
           id="path1850" />
      </g>
    </marker>
    <marker
       style="overflow:visible;"
       id="DistanceOut"
       refX="0.0"
       refY="0.0"
       orient="auto"
       inkscape:stockid="DistanceOut">
      <g
         id="g2006"
         transform="scale(-0.6,0.6) translate(8,0)">
        <path
           style="fill-rule:evenodd;stroke:#000000;stroke-width:1.0pt;marker-start:none;"
           d="M 0.0,0.0 L 5.0,-5.0 L -12.5,0.0 L 5.0,5.0 L 0.0,0.0 z "
           id="path2007"
           sodipodi:nodetypes="ccccc" />
        <path
           style="fill:none;fill-opacity:0.75000000;fill-rule:evenodd;stroke:#000000;stroke-width:1.2pt;marker-start:none;"
           d="M -14.759949,-7 L -14.759949,65"
           id="path2008" />
      </g>
    </marker>
    <marker
       style="overflow:visible;"
       id="DistanceIn"
       refX="0.0"
       refY="0.0"
       orient="auto"
       inkscape:stockid="DistanceIn">
      <g
         id="g2002"
         transform="scale(0.6,0.6) translate(8,0)">
        <path
           style="fill-rule:evenodd;stroke:#000000;stroke-width:1.0pt;marker-start:none;"
           d="M 0.0,0.0 L 5.0,-5.0 L -12.5,0.0 L 5.0,5.0 L 0.0,0.0 z "
           id="path2003"
           sodipodi:nodetypes="ccccc" />
        <path
           style="fill:none;fill-opacity:0.75000000;fill-rule:evenodd;stroke:#000000;stroke-width:1.2pt;marker-start:none;"
           d="M -14.759949,-7 L -14.759949,65"
           id="path2004" />
      </g>
    </marker>
    <marker
       style="overflow:visible;"
       id="CurvyCross"
       refX="0.0"
       refY="0.0"
       orient="auto"
       inkscape:stockid="CurvyCross">
      <g
         id="g948"
         transform="scale(0.6)">
        <path
           style="fill:none;fill-rule:evenodd;stroke:#000000;stroke-width:1.0pt;marker-start:none;marker-end:none;"
           d="M 4.6254930,-5.0456926 C 1.8654930,-5.0456926 -0.37450702,-2.8056926 -0.37450702,-0.045692580 C -0.37450702,2.7143074 1.8654930,4.9543074 4.6254930,4.9543074"
           id="path946"
           sodipodi:nodetypes="ccc" />
        <path
           style="fill:none;fill-rule:evenodd;stroke:#000000;stroke-width:1.0pt;marker-start:none;marker-end:none;"
           d="M -5.4129913,-5.0456926 C -2.6529913,-5.0456926 -0.41299131,-2.8056926 -0.41299131,-0.045692580 C -0.41299131,2.7143074 -2.6529913,4.9543074 -5.4129913,4.9543074"
           id="path947"
           sodipodi:nodetypes="ccc" />
      </g>
    </marker>
    <marker
       style="overflow:visible;"
       id="SemiCircleOut"
       refX="0.0"
       refY="0.0"
       orient="auto"
       inkscape:stockid="SemiCircleOut">
      <path
         transform="scale(0.6) translate(7.125493,0.763446)"
         style="fill-rule:evenodd;stroke:#000000;stroke-width:1.0pt;marker-start:none;marker-end:none;"
         d="M -2.5,-0.80913858 C -2.5,1.9508614 -4.7400000,4.1908614 -7.5,4.1908614 L -7.5,-5.8091386 C -4.7400000,-5.8091386 -2.5,-3.5691386 -2.5,-0.80913858 z "
         id="path953"
         sodipodi:nodetypes="cccc" />
    </marker>
    <marker
       style="overflow:visible;"
       id="Torso"
       refX="0.0"
       refY="0.0"
       orient="auto"
       inkscape:stockid="Torso">
      <g
         transform="scale(0.7)"
         id="g2045">
        <path
           style="fill:none;fill-opacity:0.75000000;fill-rule:evenodd;stroke:#000000;stroke-width:1.2500000;marker-start:none;marker-mid:none;marker-end:none;"
           d="M -4.7792281,-3.2395420 C -2.4288541,-2.8736027 0.52103922,-1.3019943 0.25792722,0.38794346 C -0.0051877922,2.0778819 -2.2126741,2.6176539 -4.5630471,2.2517169 C -6.9134221,1.8857769 -8.5210350,0.75201414 -8.2579220,-0.93792336 C -7.9948090,-2.6278615 -7.1296041,-3.6054813 -4.7792281,-3.2395420 z "
           id="path1128"
           sodipodi:nodetypes="ccccc" />
        <path
           style="fill:none;fill-opacity:0.75000000;fill-rule:evenodd;stroke:#000000;stroke-width:1.0000000pt;marker-end:none;"
           d="M 4.4598789,0.088665736 C -2.5564571,-4.3783320 5.2248769,-3.9061806 -0.84829578,-8.7197331"
           id="path1909"
           sodipodi:nodetypes="cc" />
        <path
           style="fill:none;fill-opacity:0.75000000;fill-rule:evenodd;stroke:#000000;stroke-width:1.0000000pt;marker-start:none;marker-end:none;"
           d="M 4.9298719,0.057520736 C -1.3872731,1.7494689 1.8027579,5.4782079 -4.9448731,7.5462725"
           id="path1910"
           sodipodi:nodetypes="cc" />
        <rect
           style="fill-rule:evenodd;stroke-width:1.0000000pt;marker-end:none;"
           id="rect2035"
           width="2.6366582"
           height="2.7608147"
           x="-10.391706"
           y="-1.7408575"
           transform="matrix(0.527536,-0.849533,0.887668,0.460484,0.000000,0.000000)" />
        <rect
           style="fill-rule:evenodd;stroke-width:1.0000000pt;marker-end:none;"
           id="rect2036"
           width="2.7327356"
           height="2.8614161"
           x="4.9587269"
           y="-7.9629307"
           transform="matrix(0.671205,-0.741272,0.790802,0.612072,0.000000,0.000000)" />
        <path
           sodipodi:type="arc"
           style="fill:#ff0000;fill-opacity:0.75000000;fill-rule:evenodd;stroke:#000000;stroke-width:1.0000000pt;marker-start:none;marker-end:none;"
           id="path2037"
           sodipodi:cx="16.172634"
           sodipodi:cy="-28.685045"
           sodipodi:rx="0.60731727"
           sodipodi:ry="0.60731727"
           d="m 16.779951,-28.685045 a 0.60731727,0.60731727 0 0 1 -0.607317,0.607317 0.60731727,0.60731727 0 0 1 -0.607317,-0.607317 0.60731727,0.60731727 0 0 1 0.607317,-0.607318 0.60731727,0.60731727 0 0 1 0.607317,0.607318 z"
           transform="matrix(6.793608e-17,-1.109517,1.109517,6.793608e-17,25.96648,19.71619)" />
        <path
           sodipodi:type="arc"
           style="fill:#ff0000;fill-opacity:0.75000000;fill-rule:evenodd;stroke:#000000;stroke-width:1.0000000pt;marker-start:none;marker-end:none;"
           id="path2038"
           sodipodi:cx="16.172634"
           sodipodi:cy="-28.685045"
           sodipodi:rx="0.60731727"
           sodipodi:ry="0.60731727"
           d="m 16.779951,-28.685045 a 0.60731727,0.60731727 0 0 1 -0.607317,0.607317 0.60731727,0.60731727 0 0 1 -0.607317,-0.607317 0.60731727,0.60731727 0 0 1 0.607317,-0.607318 0.60731727,0.60731727 0 0 1 0.607317,0.607318 z"
           transform="matrix(6.793608e-17,-1.109517,1.109517,6.793608e-17,26.82450,16.99126)" />
      </g>
    </marker>
    <marker
       style="overflow:visible;"
       id="CurveIn"
       refX="0.0"
       refY="0.0"
       orient="auto"
       inkscape:stockid="CurveIn">
      <path
         transform="scale(0.6)"
         style="fill-rule:evenodd;stroke:#000000;stroke-width:1.0pt;marker-start:none;marker-end:none;fill:none;"
         d="M 4.6254930,-5.0456926 C 1.8654930,-5.0456926 -0.37450702,-2.8056926 -0.37450702,-0.045692580 C -0.37450702,2.7143074 1.8654930,4.9543074 4.6254930,4.9543074"
         id="path942"
         sodipodi:nodetypes="ccc" />
    </marker>
    <marker
       style="overflow:visible;"
       id="TriangleOutM"
       refX="0.0"
       refY="0.0"
       orient="auto"
       inkscape:stockid="TriangleOutM">
      <path
         transform="scale(0.4)"
         style="fill-rule:evenodd;stroke:#000000;stroke-width:1.0pt;marker-start:none;"
         d="M 5.77,0.0 L -2.88,5.0 L -2.88,-5.0 L 5.77,0.0 z "
         id="path1562"
         sodipodi:nodetypes="cccc" />
    </marker>
    <marker
       style="overflow:visible;"
       id="DiamondS"
       refX="0.0"
       refY="0.0"
       orient="auto"
       inkscape:stockid="DiamondS">
      <path
         transform="scale(0.2)"
         style="fill-rule:evenodd;stroke:#000000;stroke-width:1.0pt;marker-start:none;"
         d="M -2.1579186e-005,-7.0710768 L -7.0710894,-8.9383918e-006 L -2.1579186e-005,7.0710589 L 7.0710462,-8.9383918e-006 L -2.1579186e-005,-7.0710768 z "
         id="path840" />
    </marker>
    <marker
       style="overflow:visible;"
       id="TriangleOutL"
       refX="0.0"
       refY="0.0"
       orient="auto"
       inkscape:stockid="TriangleOutL">
      <path
         transform="scale(0.8)"
         style="fill-rule:evenodd;stroke:#000000;stroke-width:1.0pt;marker-start:none;"
         d="M 5.77,0.0 L -2.88,5.0 L -2.88,-5.0 L 5.77,0.0 z "
         id="path1564"
         sodipodi:nodetypes="cccc" />
    </marker>
    <marker
       style="overflow:visible;"
       id="SemiCircleIn"
       refX="0.0"
       refY="0.0"
       orient="auto"
       inkscape:stockid="SemiCircleIn">
      <path
         transform="scale(0.6)"
         style="fill-rule:evenodd;stroke:#000000;stroke-width:1.0pt;marker-start:none;marker-end:none;"
         d="M -0.37450702,-0.045692580 C -0.37450702,2.7143074 1.8654930,4.9543074 4.6254930,4.9543074 L 4.6254930,-5.0456926 C 1.8654930,-5.0456926 -0.37450702,-2.8056926 -0.37450702,-0.045692580 z "
         id="path941"
         sodipodi:nodetypes="cccc" />
    </marker>
    <marker
       style="overflow:visible;"
       id="TriangleInL"
       refX="0.0"
       refY="0.0"
       orient="auto"
       inkscape:stockid="TriangleInL">
      <path
         transform="scale(-0.8)"
         style="fill-rule:evenodd;stroke:#000000;stroke-width:1.0pt;marker-start:none;"
         d="M 5.77,0.0 L -2.88,5.0 L -2.88,-5.0 L 5.77,0.0 z "
         id="path1570"
         sodipodi:nodetypes="cccc" />
    </marker>
    <marker
       style="overflow:visible;"
       id="SquareL"
       refX="0.0"
       refY="0.0"
       orient="auto"
       inkscape:stockid="SquareL">
      <path
         transform="scale(0.8)"
         style="fill-rule:evenodd;stroke:#000000;stroke-width:1.0pt;marker-start:none;"
         d="M -5.0,-5.0 L -5.0,5.0 L 5.0,5.0 L 5.0,-5.0 L -5.0,-5.0 z "
         id="path1582"
         sodipodi:nodetypes="ccccc" />
    </marker>
    <marker
       style="overflow:visible;"
       id="Arrow2L"
       refX="0.0"
       refY="0.0"
       orient="auto"
       inkscape:stockid="Arrow2L">
      <path
         transform="scale(1.1) translate(-5,0)"
         d="M 8.7185878,4.0337352 L -2.2072895,0.016013256 L 8.7185884,-4.0017078 C 6.9730900,-1.6296469 6.9831476,1.6157441 8.7185878,4.0337352 z "
         style="font-size:12.0;fill-rule:evenodd;stroke-width:0.62500000;stroke-linejoin:round;"
         id="path1610"
         sodipodi:nodetypes="cccc" />
    </marker>
    <marker
       style="overflow:visible;"
       id="DistanceLeft"
       refX="0.0"
       refY="0.0"
       orient="auto"
       inkscape:stockid="DistanceLeft">
      <g
         id="g987"
         transform="scale(0.6,0.6) translate(8,0)">
        <path
           style="fill-rule:evenodd;stroke:#000000;stroke-width:1.0pt;marker-start:none;"
           d="M 0.0,0.0 L 5.0,-5.0 L -12.5,0.0 L 5.0,5.0 L 0.0,0.0 z "
           id="path974"
           sodipodi:nodetypes="ccccc" />
        <path
           style="fill:none;fill-opacity:0.75000000;fill-rule:evenodd;stroke:#000000;stroke-width:1.2pt;marker-start:none;"
           d="M -14.759949,-7 L -14.759949,65"
           id="path976" />
      </g>
    </marker>
    <marker
       style="overflow:visible;"
       id="Arrow1S"
       refX="0.0"
       refY="0.0"
       orient="auto"
       inkscape:stockid="Arrow1S">
      <path
         transform="scale(0.2)"
         style="fill-rule:evenodd;stroke:#000000;stroke-width:1.0pt;marker-start:none;"
         d="M 0.0,0.0 L 5.0,-5.0 L -12.5,0.0 L 5.0,5.0 L 0.0,0.0 z "
         id="path983"
         sodipodi:nodetypes="ccccc" />
    </marker>
    <marker
       style="overflow:visible;"
       id="DiamondL"
       refX="0.0"
       refY="0.0"
       orient="auto"
       inkscape:stockid="DiamondL">
      <path
         transform="scale(0.8)"
         style="fill-rule:evenodd;stroke:#000000;stroke-width:1.0pt;marker-start:none;"
         d="M -2.1579186e-005,-7.0710768 L -7.0710894,-8.9383918e-006 L -2.1579186e-005,7.0710589 L 7.0710462,-8.9383918e-006 L -2.1579186e-005,-7.0710768 z "
         id="path1576" />
    </marker>
    <marker
       style="overflow:visible;"
       id="StopM"
       refX="0.0"
       refY="0.0"
       orient="auto"
       inkscape:stockid="StopM">
      <path
         transform="scale(0.4)"
         style="fill:none;fill-opacity:0.75000000;fill-rule:evenodd;stroke:#000000;stroke-width:1.0pt;"
         d="M 0.0,5.65 L 0.0,-5.65"
         id="path1556" />
    </marker>
    <marker
       style="overflow:visible;"
       id="Club"
       refX="0.0"
       refY="0.0"
       orient="auto"
       inkscape:stockid="Club">
      <path
         transform="scale(0.6)"
         style="fill-rule:evenodd;stroke:#000000;stroke-width:0.74587913pt;marker-start:none;"
         d="M -1.5971367,-7.0977635 C -3.4863874,-7.0977635 -5.0235187,-5.5606321 -5.0235187,-3.6713813 C -5.0235187,-3.0147015 -4.7851656,-2.4444556 -4.4641095,-1.9232271 C -4.5028609,-1.8911157 -4.5437814,-1.8647646 -4.5806531,-1.8299921 C -5.2030765,-2.6849849 -6.1700514,-3.2751330 -7.3077730,-3.2751330 C -9.1970245,-3.2751331 -10.734155,-1.7380016 -10.734155,0.15124914 C -10.734155,2.0404999 -9.1970245,3.5776313 -7.3077730,3.5776313 C -6.3143268,3.5776313 -5.4391540,3.1355702 -4.8137404,2.4588126 C -4.9384274,2.8137041 -5.0235187,3.1803000 -5.0235187,3.5776313 C -5.0235187,5.4668819 -3.4863874,7.0040135 -1.5971367,7.0040135 C 0.29211394,7.0040135 1.8292454,5.4668819 1.8292454,3.5776313 C 1.8292454,2.7842354 1.5136868,2.0838028 1.0600576,1.5031550 C 2.4152718,1.7663868 3.7718375,2.2973711 4.7661444,3.8340272 C 4.0279463,3.0958289 3.5540908,1.7534117 3.5540908,-0.058529361 L 2.9247554,-0.10514681 L 3.5074733,-0.12845553 C 3.5074733,-1.9403966 3.9580199,-3.2828138 4.6962183,-4.0210121 C 3.7371277,-2.5387813 2.4390549,-1.9946496 1.1299838,-1.7134486 C 1.5341802,-2.2753578 1.8292454,-2.9268556 1.8292454,-3.6713813 C 1.8292454,-5.5606319 0.29211394,-7.0977635 -1.5971367,-7.0977635 z "
         id="path1015" />
    </marker>
    <marker
       style="overflow:visible;"
       id="StopL"
       refX="0.0"
       refY="0.0"
       orient="auto"
       inkscape:stockid="StopL">
      <path
         transform="scale(0.8)"
         style="fill:none;fill-opacity:0.75000000;fill-rule:evenodd;stroke:#000000;stroke-width:1.0pt;"
         d="M 0.0,5.65 L 0.0,-5.65"
         id="path1558" />
    </marker>
    <marker
       style="overflow:visible;"
       id="Dot_m"
       refX="0.0"
       refY="0.0"
       orient="auto"
       inkscape:stockid="Dot_m">
      <path
         transform="scale(0.4) translate(7.125493, 1)"
         style="fill-rule:evenodd;stroke:#000000;stroke-width:1.0pt;marker-start:none;marker-end:none;"
         d="M -2.5,-1.0 C -2.5,1.7600000 -4.7400000,4.0 -7.5,4.0 C -10.260000,4.0 -12.5,1.7600000 -12.5,-1.0 C -12.5,-3.7600000 -10.260000,-6.0 -7.5,-6.0 C -4.7400000,-6.0 -2.5,-3.7600000 -2.5,-1.0 z "
         id="path39" />
    </marker>
    <marker
       style="overflow:visible;"
       id="Dot_l"
       refX="0.0"
       refY="0.0"
       orient="auto"
       inkscape:stockid="Dot_l">
      <path
         transform="scale(0.8) translate(7.125493, 1)"
         style="fill-rule:evenodd;stroke:#000000;stroke-width:1.0pt;marker-start:none;marker-end:none;"
         d="M -2.5,-1.0 C -2.5,1.7600000 -4.7400000,4.0 -7.5,4.0 C -10.260000,4.0 -12.5,1.7600000 -12.5,-1.0 C -12.5,-3.7600000 -10.260000,-6.0 -7.5,-6.0 C -4.7400000,-6.0 -2.5,-3.7600000 -2.5,-1.0 z "
         id="path41" />
    </marker>
    <marker
       style="overflow:visible;"
       id="Scissors"
       refX="0.0"
       refY="0.0"
       orient="auto"
       inkscape:stockid="Scissors">
      <path
         d="M 9.0898857,-3.6061018 C 8.1198849,-4.7769976 6.3697607,-4.7358294 5.0623558,-4.2327734 L -3.1500488,-1.1548705 C -5.5383421,-2.4615840 -7.8983361,-2.0874077 -7.8983361,-2.7236578 C -7.8983361,-3.2209742 -7.4416699,-3.1119800 -7.5100293,-4.4068519 C -7.5756648,-5.6501286 -8.8736064,-6.5699315 -10.100428,-6.4884954 C -11.327699,-6.4958500 -12.599867,-5.5553341 -12.610769,-4.2584343 C -12.702194,-2.9520479 -11.603560,-1.7387447 -10.304005,-1.6532027 C -8.7816644,-1.4265411 -6.0857470,-2.3487593 -4.8210600,-0.082342643 C -5.7633447,1.6559151 -7.4350844,1.6607341 -8.9465707,1.5737277 C -10.201445,1.5014928 -11.708664,1.8611256 -12.307219,3.0945882 C -12.885586,4.2766744 -12.318421,5.9591904 -10.990470,6.3210002 C -9.6502788,6.8128279 -7.8098011,6.1912892 -7.4910978,4.6502760 C -7.2454393,3.4624530 -8.0864637,2.9043186 -7.7636052,2.4731223 C -7.5199917,2.1477623 -5.9728246,2.3362771 -3.2164999,1.0982979 L 5.6763468,4.2330688 C 6.8000164,4.5467672 8.1730685,4.5362646 9.1684433,3.4313614 L -0.051640930,-0.053722219 L 9.0898857,-3.6061018 z M -9.2179159,-5.5066058 C -7.9233569,-4.7838060 -8.0290767,-2.8230356 -9.3743431,-2.4433169 C -10.590861,-2.0196559 -12.145370,-3.2022863 -11.757521,-4.5207817 C -11.530373,-5.6026336 -10.104134,-6.0014137 -9.2179159,-5.5066058 z M -9.1616516,2.5107591 C -7.8108215,3.0096239 -8.0402087,5.2951947 -9.4138723,5.6023681 C -10.324932,5.9187072 -11.627422,5.4635705 -11.719569,4.3902287 C -11.897178,3.0851737 -10.363484,1.9060805 -9.1616516,2.5107591 z "
         style="marker-start:none;"
         id="schere" />
    </marker>
    <marker
       style="overflow:visible;"
       id="Dot_s"
       refX="0.0"
       refY="0.0"
       orient="auto"
       inkscape:stockid="Dot_s">
      <path
         transform="scale(0.2) translate(7.125493, 1)"
         style="fill-rule:evenodd;stroke:#000000;stroke-width:1.0pt;marker-start:none;marker-end:none;"
         d="M -2.5,-1.0 C -2.5,1.7600000 -4.7400000,4.0 -7.5,4.0 C -10.260000,4.0 -12.5,1.7600000 -12.5,-1.0 C -12.5,-3.7600000 -10.260000,-6.0 -7.5,-6.0 C -4.7400000,-6.0 -2.5,-3.7600000 -2.5,-1.0 z "
         id="path933" />
    </marker>
    <marker
       style="overflow:visible;"
       id="Arrow2M"
       refX="0.0"
       refY="0.0"
       orient="auto"
       inkscape:stockid="Arrow2M">
      <path
         transform="scale(0.6) translate(-5,0)"
         d="M 8.7185878,4.0337352 L -2.2072895,0.016013256 L 8.7185884,-4.0017078 C 6.9730900,-1.6296469 6.9831476,1.6157441 8.7185878,4.0337352 z "
         style="font-size:12.0;fill-rule:evenodd;stroke-width:0.62500000;stroke-linejoin:round;"
         id="path1608"
         sodipodi:nodetypes="cccc" />
    </marker>
    <marker
       style="overflow:visible;"
       id="Arrow1M"
       refX="0.0"
       refY="0.0"
       orient="auto"
       inkscape:stockid="Arrow1M">
      <path
         transform="scale(0.4)"
         style="fill-rule:evenodd;stroke:#000000;stroke-width:1.0pt;marker-start:none;"
         d="M 0.0,0.0 L 5.0,-5.0 L -12.5,0.0 L 5.0,5.0 L 0.0,0.0 z "
         id="path1614"
         sodipodi:nodetypes="ccccc" />
    </marker>
    <marker
       style="overflow:visible;"
       id="Arrow1L"
       refX="0.0"
       refY="0.0"
       orient="auto"
       inkscape:stockid="Arrow1L">
      <path
         transform="scale(0.8)"
         style="fill-rule:evenodd;stroke:#000000;stroke-width:1.0pt;marker-start:none;"
         d="M 0.0,0.0 L 5.0,-5.0 L -12.5,0.0 L 5.0,5.0 L 0.0,0.0 z "
         id="path1616"
         sodipodi:nodetypes="ccccc" />
    </marker>
  </defs>
  <sodipodi:namedview
     pagecolor="#ffffff"
     bordercolor="#666666"
     borderopacity="1"
     objecttolerance="10"
     gridtolerance="10"
     guidetolerance="10"
     inkscape:pageopacity="0"
     inkscape:pageshadow="2"
     inkscape:window-width="1920"
     inkscape:window-height="962"
     id="namedview6"
     showgrid="true"
     inkscape:zoom="16"
     inkscape:cx="11.084812"
     inkscape:cy="14.18424"
     inkscape:window-x="0"
     inkscape:window-y="30"
     inkscape:window-maximized="1"
     inkscape:current-layer="svg4"
     inkscape:snap-global="false">
    <inkscape:grid
       type="xygrid"
       id="grid904" />
  </sodipodi:namedview>
  <path
     style="fill:#000000;fill-opacity:1;fill-rule:evenodd;stroke:none;stroke-width:1.99999976;stroke-linecap:round;stroke-linejoin:round;stroke-miterlimit:4;stroke-dasharray:none;stroke-opacity:1"
     d="m 20,15 -5,5 h 4.522728 C 19.786538,20 20,19.808067 20,19.570675 Z"
     id="path1391"
     inkscape:connector-curvature="0" />
  <path
     style="color:#000000;font-style:normal;font-variant:normal;font-weight:normal;font-stretch:normal;font-size:medium;line-height:normal;font-family:sans-serif;font-variant-ligatures:normal;font-variant-position:normal;font-variant-caps:normal;font-variant-numeric:normal;font-variant-alternates:normal;font-feature-settings:normal;text-indent:0;text-align:start;text-decoration:none;text-decoration-line:none;text-decoration-style:solid;text-decoration-color:#000000;letter-spacing:normal;word-spacing:normal;text-transform:none;writing-mode:lr-tb;direction:ltr;text-orientation:mixed;dominant-baseline:auto;baseline-shift:baseline;text-anchor:start;white-space:normal;shape-padding:0;clip-rule:nonzero;display:inline;overflow:visible;visibility:visible;opacity:1;isolation:auto;mix-blend-mode:normal;color-interpolation:sRGB;color-interpolation-filters:linearRGB;solid-color:#000000;solid-opacity:1;vector-effect:none;fill:#000000;fill-opacity:1;fill-rule:nonzero;stroke:none;stroke-width:1.99999988;stroke-linecap:round;stroke-linejoin:miter;stroke-miterlimit:4;stroke-dasharray:none;stroke-dashoffset:0;stroke-opacity:1;color-rendering:auto;image-rendering:auto;shape-rendering:auto;text-rendering:auto;enable-background:accumulate"
     d="m 18.902146,4.000465 a 1.0664187,1.0665468 0 0 0 -0.73309,0.3228477 L 4.3278252,18.164123 a 1.0664187,1.0665468 0 1 0 1.5078325,1.508013 L 19.676888,5.8313254 A 1.0664187,1.0665468 0 0 0 18.902146,4.000465 Z"
     id="path903-3"
     inkscape:connector-curvature="0" />
  <path
     style="fill:#000000;fill-opacity:1;fill-rule:evenodd;stroke:none;stroke-width:1.99999976;stroke-linecap:round;stroke-linejoin:round;stroke-miterlimit:4;stroke-dasharray:none;stroke-opacity:1"
     d="M 4,9 9,4 H 4.477272 C 4.213462,4 4,4.191933 4,4.429325 Z"
     id="path1391-3"
     inkscape:connector-curvature="0" />
</svg>
