<?xml version="1.0" encoding="UTF-8" standalone="no"?>
<svg
   xmlns:dc="http://purl.org/dc/elements/1.1/"
   xmlns:cc="http://creativecommons.org/ns#"
   xmlns:rdf="http://www.w3.org/1999/02/22-rdf-syntax-ns#"
   xmlns:svg="http://www.w3.org/2000/svg"
   xmlns="http://www.w3.org/2000/svg"
   xmlns:sodipodi="http://sodipodi.sourceforge.net/DTD/sodipodi-0.dtd"
   xmlns:inkscape="http://www.inkscape.org/namespaces/inkscape"
   width="16px"
   height="16px"
   viewBox="0 0 16 16"
   version="1.1"
   id="svg9"
   sodipodi:docname="line-curve-symbolic.svg"
   inkscape:version="1.0.2 (e86c870879, 2021-01-15)">
  <metadata
     id="metadata15">
    <rdf:RDF>
      <cc:Work
         rdf:about="">
        <dc:format>image/svg+xml</dc:format>
        <dc:type
           rdf:resource="http://purl.org/dc/dcmitype/StillImage" />
      </cc:Work>
    </rdf:RDF>
  </metadata>
  <defs
     id="defs13" />
  <sodipodi:namedview
     pagecolor="#ffffff"
     bordercolor="#666666"
     borderopacity="1"
     objecttolerance="10"
     gridtolerance="10"
     guidetolerance="10"
     inkscape:pageopacity="0"
     inkscape:pageshadow="2"
     inkscape:window-width="2560"
     inkscape:window-height="1014"
     id="namedview11"
     showgrid="false"
     inkscape:zoom="51.027181"
     inkscape:cx="8"
     inkscape:cy="8"
     inkscape:window-x="0"
     inkscape:window-y="0"
     inkscape:window-maximized="1"
     inkscape:current-layer="svg9" />
  <g
     id="surface29467"
     style="fill:#241f31"
     transform="rotate(90,8,8)">
    <path
       style="fill:#241f31;fill-opacity:1;fill-rule:nonzero;stroke:none"
       d="M 4.035156,12.300781 C 4.375,7.878906 7.878906,4.375 12.300781,4.035156 12.113281,3.730469 12,3.378906 12,3 12,2.648438 12.097656,2.324219 12.261719,2.039062 6.785156,2.40625 2.402344,6.789062 2.035156,12.261719 2.324219,12.101562 2.648438,12 3,12 c 0.378906,0 0.730469,0.113281 1.035156,0.300781 z m 0,0"
       id="path2" />
    <path
       style="fill:#241f31;fill-opacity:1;fill-rule:nonzero;stroke:none"
       d="m 13,5 c 1.097656,0 2,-0.902344 2,-2 0,-1.097656 -0.902344,-2 -2,-2 -1.097656,0 -2,0.902344 -2,2 0,1.097656 0.902344,2 2,2 z m 0,-1 c -0.558594,0 -1,-0.441406 -1,-1 0,-0.558594 0.441406,-1 1,-1 0.558594,0 1,0.441406 1,1 0,0.558594 -0.441406,1 -1,1 z m 0,0"
       id="path4" />
    <path
       style="fill:#241f31;fill-opacity:1;fill-rule:nonzero;stroke:none"
       d="m 3,15 c 1.097656,0 2,-0.902344 2,-2 0,-1.097656 -0.902344,-2 -2,-2 -1.097656,0 -2,0.902344 -2,2 0,1.097656 0.902344,2 2,2 z m 0,-1 c -0.558594,0 -1,-0.441406 -1,-1 0,-0.558594 0.441406,-1 1,-1 0.558594,0 1,0.441406 1,1 0,0.558594 -0.441406,1 -1,1 z m 0,0"
       id="path6" />
  </g>
</svg>
