<?xml version="1.0" encoding="UTF-8"?>
<svg height="128px" viewBox="0 0 128 128" width="128px" xmlns="http://www.w3.org/2000/svg" xmlns:xlink="http://www.w3.org/1999/xlink">
    <linearGradient id="a" gradientTransform="matrix(0.232143 0 0 0.328947 -8.56656 263.826935)" gradientUnits="userSpaceOnUse" x1="88.595886" x2="536.595886" y1="-449.394012" y2="-449.394012">
        <stop offset="0" stop-color="#deddda"/>
        <stop offset="0.0384615" stop-color="#deddda"/>
        <stop offset="0.0768555" stop-color="#c0bfbc"/>
        <stop offset="0.923077" stop-color="#c0bfbc"/>
        <stop offset="0.961538" stop-color="#deddda"/>
        <stop offset="1" stop-color="#c0bfbc"/>
    </linearGradient>
    <clipPath id="b">
        <rect height="128" width="128"/>
    </clipPath>
    <clipPath id="c">
        <rect height="128" width="128"/>
    </clipPath>
    <filter id="d" height="100%" width="100%" x="0%" y="0%">
        <feColorMatrix in="SourceGraphic" type="matrix" values="0 0 0 0 1 0 0 0 0 1 0 0 0 0 1 0 0 0 1 0"/>
    </filter>
    <mask id="e">
        <g clip-path="url(#c)" filter="url(#d)">
            <g clip-path="url(#b)">
                <path d="m 20 16 h 88 c 4.417969 0 8 3.582031 8 8 v 84 c 0 4.417969 -3.582031 8 -8 8 h -88 c -4.417969 0 -8 -3.582031 -8 -8 v -84 c 0 -4.417969 3.582031 -8 8 -8 z m 0 0" fill="url(#a)"/>
                <path d="m 20 12 h 88 c 4.417969 0 8 3.582031 8 8 v 84 c 0 4.417969 -3.582031 8 -8 8 h -88 c -4.417969 0 -8 -3.582031 -8 -8 v -84 c 0 -4.417969 3.582031 -8 8 -8 z m 0 0" fill="#eeeeee"/>
                <path d="m 32 28 c 0 2.210938 -1.789062 4 -4 4 s -4 -1.789062 -4 -4 s 1.789062 -4 4 -4 s 4 1.789062 4 4 z m 0 0" fill="#cccbc9"/>
                <path d="m 68 28 c 0 2.210938 -1.789062 4 -4 4 s -4 -1.789062 -4 -4 s 1.789062 -4 4 -4 s 4 1.789062 4 4 z m 0 0" fill="#cccbc9"/>
                <path d="m 104 28 c 0 2.210938 -1.789062 4 -4 4 s -4 -1.789062 -4 -4 s 1.789062 -4 4 -4 s 4 1.789062 4 4 z m 0 0" fill="#cccbc9"/>
                <path d="m 32 60 c 0 2.210938 -1.789062 4 -4 4 s -4 -1.789062 -4 -4 s 1.789062 -4 4 -4 s 4 1.789062 4 4 z m 0 0" fill="#cccbc9"/>
                <path d="m 68 60 c 0 2.210938 -1.789062 4 -4 4 s -4 -1.789062 -4 -4 s 1.789062 -4 4 -4 s 4 1.789062 4 4 z m 0 0" fill="#cccbc9"/>
                <path d="m 104 60 c 0 2.210938 -1.789062 4 -4 4 s -4 -1.789062 -4 -4 s 1.789062 -4 4 -4 s 4 1.789062 4 4 z m 0 0" fill="#cccbc9"/>
                <path d="m 104 98 c 0 2.210938 -1.789062 4 -4 4 s -4 -1.789062 -4 -4 s 1.789062 -4 4 -4 s 4 1.789062 4 4 z m 0 0" fill="#cccbc9"/>
                <path d="m 68 98 c 0 2.210938 -1.789062 4 -4 4 s -4 -1.789062 -4 -4 s 1.789062 -4 4 -4 s 4 1.789062 4 4 z m 0 0" fill="#cccbc9"/>
                <path d="m 32 98 c 0 2.210938 -1.789062 4 -4 4 s -4 -1.789062 -4 -4 s 1.789062 -4 4 -4 s 4 1.789062 4 4 z m 0 0" fill="#cccbc9"/>
                <path d="m 30 78 c 0 1.105469 -0.894531 2 -2 2 s -2 -0.894531 -2 -2 s 0.894531 -2 2 -2 s 2 0.894531 2 2 z m 0 0" fill="#deddda"/>
                <path d="m 48 78 c 0 1.105469 -0.894531 2 -2 2 s -2 -0.894531 -2 -2 s 0.894531 -2 2 -2 s 2 0.894531 2 2 z m 0 0" fill="#deddda"/>
                <path d="m 48 60 c 0 1.105469 -0.894531 2 -2 2 s -2 -0.894531 -2 -2 s 0.894531 -2 2 -2 s 2 0.894531 2 2 z m 0 0" fill="#deddda"/>
                <path d="m 66 78 c 0 1.105469 -0.894531 2 -2 2 s -2 -0.894531 -2 -2 s 0.894531 -2 2 -2 s 2 0.894531 2 2 z m 0 0" fill="#deddda"/>
                <path d="m 48 98 c 0 1.105469 -0.894531 2 -2 2 s -2 -0.894531 -2 -2 s 0.894531 -2 2 -2 s 2 0.894531 2 2 z m 0 0" fill="#deddda"/>
                <path d="m 86 98 c 0 1.105469 -0.894531 2 -2 2 s -2 -0.894531 -2 -2 s 0.894531 -2 2 -2 s 2 0.894531 2 2 z m 0 0" fill="#deddda"/>
                <path d="m 86 78 c 0 1.105469 -0.894531 2 -2 2 s -2 -0.894531 -2 -2 s 0.894531 -2 2 -2 s 2 0.894531 2 2 z m 0 0" fill="#deddda"/>
                <path d="m 102 78 c 0 1.105469 -0.894531 2 -2 2 s -2 -0.894531 -2 -2 s 0.894531 -2 2 -2 s 2 0.894531 2 2 z m 0 0" fill="#deddda"/>
                <path d="m 86 60 c 0 1.105469 -0.894531 2 -2 2 s -2 -0.894531 -2 -2 s 0.894531 -2 2 -2 s 2 0.894531 2 2 z m 0 0" fill="#deddda"/>
                <path d="m 86 44 c 0 1.105469 -0.894531 2 -2 2 s -2 -0.894531 -2 -2 s 0.894531 -2 2 -2 s 2 0.894531 2 2 z m 0 0" fill="#deddda"/>
                <path d="m 66 44 c 0 1.105469 -0.894531 2 -2 2 s -2 -0.894531 -2 -2 s 0.894531 -2 2 -2 s 2 0.894531 2 2 z m 0 0" fill="#deddda"/>
                <path d="m 48 44 c 0 1.105469 -0.894531 2 -2 2 s -2 -0.894531 -2 -2 s 0.894531 -2 2 -2 s 2 0.894531 2 2 z m 0 0" fill="#deddda"/>
                <path d="m 30 44 c 0 1.105469 -0.894531 2 -2 2 s -2 -0.894531 -2 -2 s 0.894531 -2 2 -2 s 2 0.894531 2 2 z m 0 0" fill="#deddda"/>
                <path d="m 48 28 c 0 1.105469 -0.894531 2 -2 2 s -2 -0.894531 -2 -2 s 0.894531 -2 2 -2 s 2 0.894531 2 2 z m 0 0" fill="#deddda"/>
                <path d="m 86 28 c 0 1.105469 -0.894531 2 -2 2 s -2 -0.894531 -2 -2 s 0.894531 -2 2 -2 s 2 0.894531 2 2 z m 0 0" fill="#deddda"/>
                <path d="m 102 44 c 0 1.105469 -0.894531 2 -2 2 s -2 -0.894531 -2 -2 s 0.894531 -2 2 -2 s 2 0.894531 2 2 z m 0 0" fill="#deddda"/>
                <path d="m 46 198 l -1.9375 2.496094 l 37.9375 31.503906 l -38 38 l 2 2 l 40 -40 z m 0 0" fill="#00dac7" stroke="#00dac7" stroke-linecap="round" stroke-linejoin="round" transform="matrix(1 0 0 1 0 -172)"/>
            </g>
        </g>
    </mask>
    <mask id="f">
        <g filter="url(#d)">
            <rect fill-opacity="0.8" height="128" width="128"/>
        </g>
    </mask>
    <linearGradient id="g" gradientTransform="matrix(0 0.37 -0.98462 0 295.38501 -30.360001)" gradientUnits="userSpaceOnUse" x1="300" x2="428" y1="235" y2="235">
        <stop offset="0" stop-color="#f9f06b"/>
        <stop offset="1" stop-color="#f5c211"/>
    </linearGradient>
    <clipPath id="h">
        <rect height="128" width="128"/>
    </clipPath>
    <clipPath id="i">
        <rect height="128" width="128"/>
    </clipPath>
    <path d="m 20 16 h 88 c 4.417969 0 8 3.582031 8 8 v 84 c 0 4.417969 -3.582031 8 -8 8 h -88 c -4.417969 0 -8 -3.582031 -8 -8 v -84 c 0 -4.417969 3.582031 -8 8 -8 z m 0 0" fill="url(#a)"/>
    <path d="m 20 12 h 88 c 4.417969 0 8 3.582031 8 8 v 84 c 0 4.417969 -3.582031 8 -8 8 h -88 c -4.417969 0 -8 -3.582031 -8 -8 v -84 c 0 -4.417969 3.582031 -8 8 -8 z m 0 0" fill="#eeeeee"/>
    <path d="m 32 28 c 0 2.210938 -1.789062 4 -4 4 s -4 -1.789062 -4 -4 s 1.789062 -4 4 -4 s 4 1.789062 4 4 z m 0 0" fill="#cccbc9"/>
    <path d="m 68 28 c 0 2.210938 -1.789062 4 -4 4 s -4 -1.789062 -4 -4 s 1.789062 -4 4 -4 s 4 1.789062 4 4 z m 0 0" fill="#cccbc9"/>
    <path d="m 104 28 c 0 2.210938 -1.789062 4 -4 4 s -4 -1.789062 -4 -4 s 1.789062 -4 4 -4 s 4 1.789062 4 4 z m 0 0" fill="#cccbc9"/>
    <path d="m 32 60 c 0 2.210938 -1.789062 4 -4 4 s -4 -1.789062 -4 -4 s 1.789062 -4 4 -4 s 4 1.789062 4 4 z m 0 0" fill="#cccbc9"/>
    <path d="m 68 60 c 0 2.210938 -1.789062 4 -4 4 s -4 -1.789062 -4 -4 s 1.789062 -4 4 -4 s 4 1.789062 4 4 z m 0 0" fill="#cccbc9"/>
    <path d="m 104 60 c 0 2.210938 -1.789062 4 -4 4 s -4 -1.789062 -4 -4 s 1.789062 -4 4 -4 s 4 1.789062 4 4 z m 0 0" fill="#cccbc9"/>
    <path d="m 104 98 c 0 2.210938 -1.789062 4 -4 4 s -4 -1.789062 -4 -4 s 1.789062 -4 4 -4 s 4 1.789062 4 4 z m 0 0" fill="#cccbc9"/>
    <path d="m 68 98 c 0 2.210938 -1.789062 4 -4 4 s -4 -1.789062 -4 -4 s 1.789062 -4 4 -4 s 4 1.789062 4 4 z m 0 0" fill="#cccbc9"/>
    <path d="m 32 98 c 0 2.210938 -1.789062 4 -4 4 s -4 -1.789062 -4 -4 s 1.789062 -4 4 -4 s 4 1.789062 4 4 z m 0 0" fill="#cccbc9"/>
    <g fill="#deddda">
        <path d="m 30 78 c 0 1.105469 -0.894531 2 -2 2 s -2 -0.894531 -2 -2 s 0.894531 -2 2 -2 s 2 0.894531 2 2 z m 0 0"/>
        <path d="m 48 78 c 0 1.105469 -0.894531 2 -2 2 s -2 -0.894531 -2 -2 s 0.894531 -2 2 -2 s 2 0.894531 2 2 z m 0 0"/>
        <path d="m 48 60 c 0 1.105469 -0.894531 2 -2 2 s -2 -0.894531 -2 -2 s 0.894531 -2 2 -2 s 2 0.894531 2 2 z m 0 0"/>
        <path d="m 66 78 c 0 1.105469 -0.894531 2 -2 2 s -2 -0.894531 -2 -2 s 0.894531 -2 2 -2 s 2 0.894531 2 2 z m 0 0"/>
        <path d="m 48 98 c 0 1.105469 -0.894531 2 -2 2 s -2 -0.894531 -2 -2 s 0.894531 -2 2 -2 s 2 0.894531 2 2 z m 0 0"/>
        <path d="m 86 98 c 0 1.105469 -0.894531 2 -2 2 s -2 -0.894531 -2 -2 s 0.894531 -2 2 -2 s 2 0.894531 2 2 z m 0 0"/>
        <path d="m 86 78 c 0 1.105469 -0.894531 2 -2 2 s -2 -0.894531 -2 -2 s 0.894531 -2 2 -2 s 2 0.894531 2 2 z m 0 0"/>
        <path d="m 102 78 c 0 1.105469 -0.894531 2 -2 2 s -2 -0.894531 -2 -2 s 0.894531 -2 2 -2 s 2 0.894531 2 2 z m 0 0"/>
        <path d="m 86 60 c 0 1.105469 -0.894531 2 -2 2 s -2 -0.894531 -2 -2 s 0.894531 -2 2 -2 s 2 0.894531 2 2 z m 0 0"/>
        <path d="m 86 44 c 0 1.105469 -0.894531 2 -2 2 s -2 -0.894531 -2 -2 s 0.894531 -2 2 -2 s 2 0.894531 2 2 z m 0 0"/>
        <path d="m 66 44 c 0 1.105469 -0.894531 2 -2 2 s -2 -0.894531 -2 -2 s 0.894531 -2 2 -2 s 2 0.894531 2 2 z m 0 0"/>
        <path d="m 48 44 c 0 1.105469 -0.894531 2 -2 2 s -2 -0.894531 -2 -2 s 0.894531 -2 2 -2 s 2 0.894531 2 2 z m 0 0"/>
        <path d="m 30 44 c 0 1.105469 -0.894531 2 -2 2 s -2 -0.894531 -2 -2 s 0.894531 -2 2 -2 s 2 0.894531 2 2 z m 0 0"/>
        <path d="m 48 28 c 0 1.105469 -0.894531 2 -2 2 s -2 -0.894531 -2 -2 s 0.894531 -2 2 -2 s 2 0.894531 2 2 z m 0 0"/>
        <path d="m 86 28 c 0 1.105469 -0.894531 2 -2 2 s -2 -0.894531 -2 -2 s 0.894531 -2 2 -2 s 2 0.894531 2 2 z m 0 0"/>
        <path d="m 102 44 c 0 1.105469 -0.894531 2 -2 2 s -2 -0.894531 -2 -2 s 0.894531 -2 2 -2 s 2 0.894531 2 2 z m 0 0"/>
    </g>
    <path d="m 46 26 l -1.9375 2.496094 l 37.9375 31.503906 l -38 38 l 2 2 l 40 -40 z m 0 0" fill="#00dac7" stroke="#00dac7" stroke-linecap="round" stroke-linejoin="round"/>
    <g clip-path="url(#i)" mask="url(#e)">
        <g clip-path="url(#h)" mask="url(#f)">
            <path d="m 128 80.640625 v 47.359375 h -128 v -47.359375 z m 0 0" fill="url(#g)"/>
            <path d="m 13.308594 80.640625 l 47.355468 47.359375 h 21.214844 l -47.359375 -47.359375 z m 42.421875 0 l 47.363281 47.359375 h 21.214844 l -47.363282 -47.359375 z m 42.429687 0 l 29.839844 29.839844 v -21.210938 l -8.628906 -8.628906 z m -98.160156 7.90625 v 21.214844 l 18.238281 18.238281 h 21.214844 z m 0 0"/>
        </g>
    </g>
</svg>
