<?xml version="1.0" encoding="UTF-8"?>
<svg height="128px" viewBox="0 0 128 128" width="128px" xmlns="http://www.w3.org/2000/svg" xmlns:xlink="http://www.w3.org/1999/xlink">
    <linearGradient id="a" gradientTransform="matrix(0.232143 0 0 0.328947 -8.56656 263.826935)" gradientUnits="userSpaceOnUse" x1="88.595886" x2="536.595886" y1="-449.394012" y2="-449.394012">
        <stop offset="0" stop-color="#deddda"/>
        <stop offset="0.0384615" stop-color="#deddda"/>
        <stop offset="0.0768555" stop-color="#c0bfbc"/>
        <stop offset="0.923077" stop-color="#c0bfbc"/>
        <stop offset="0.961538" stop-color="#deddda"/>
        <stop offset="1" stop-color="#c0bfbc"/>
    </linearGradient>
    <linearGradient id="b" gradientUnits="userSpaceOnUse" x1="63.822495" x2="64.202827" y1="27.805363" y2="92.536797">
        <stop offset="0" stop-color="#00dac7"/>
        <stop offset="1" stop-color="#3584e4"/>
    </linearGradient>
    <path d="m 48 60 c 0 1.105469 -0.894531 2 -2 2 s -2 -0.894531 -2 -2 s 0.894531 -2 2 -2 s 2 0.894531 2 2 z m 0 0" fill="#deddda"/>
    <path d="m 20 16 h 88 c 4.417969 0 8 3.582031 8 8 v 84 c 0 4.417969 -3.582031 8 -8 8 h -88 c -4.417969 0 -8 -3.582031 -8 -8 v -84 c 0 -4.417969 3.582031 -8 8 -8 z m 0 0" fill="url(#a)"/>
    <path d="m 20 12 h 88 c 4.417969 0 8 3.4375 8 7.679688 v 80.640624 c 0 4.242188 -3.582031 7.679688 -8 7.679688 h -88 c -4.417969 0 -8 -3.4375 -8 -7.679688 v -80.640624 c 0 -4.242188 3.582031 -7.679688 8 -7.679688 z m 0 0" fill="#f6f5f4"/>
    <path d="m 32 28 c 0 2.210938 -1.789062 4 -4 4 s -4 -1.789062 -4 -4 s 1.789062 -4 4 -4 s 4 1.789062 4 4 z m 0 0" fill="#b8b7b5"/>
    <path d="m 104 28 c 0 2.210938 -1.789062 4 -4 4 s -4 -1.789062 -4 -4 s 1.789062 -4 4 -4 s 4 1.789062 4 4 z m 0 0" fill="#b8b7b5"/>
    <path d="m 104 92 c 0 2.210938 -1.789062 4 -4 4 s -4 -1.789062 -4 -4 s 1.789062 -4 4 -4 s 4 1.789062 4 4 z m 0 0" fill="#b8b7b5"/>
    <path d="m 32 92 c 0 2.210938 -1.789062 4 -4 4 s -4 -1.789062 -4 -4 s 1.789062 -4 4 -4 s 4 1.789062 4 4 z m 0 0" fill="#b8b7b5"/>
    <g fill="#cac9c6">
        <path d="m 30 75 c 0 1.105469 -0.894531 2 -2 2 s -2 -0.894531 -2 -2 s 0.894531 -2 2 -2 s 2 0.894531 2 2 z m 0 0"/>
        <path d="m 48 75 c 0 1.105469 -0.894531 2 -2 2 s -2 -0.894531 -2 -2 s 0.894531 -2 2 -2 s 2 0.894531 2 2 z m 0 0"/>
        <path d="m 30 59 c 0 1.105469 -0.894531 2 -2 2 s -2 -0.894531 -2 -2 s 0.894531 -2 2 -2 s 2 0.894531 2 2 z m 0 0"/>
        <path d="m 66 75 c 0 1.105469 -0.894531 2 -2 2 s -2 -0.894531 -2 -2 s 0.894531 -2 2 -2 s 2 0.894531 2 2 z m 0 0"/>
        <path d="m 48.5 92 c 0 1.105469 -0.894531 2 -2 2 s -2 -0.894531 -2 -2 s 0.894531 -2 2 -2 s 2 0.894531 2 2 z m 0 0"/>
        <path d="m 83.5 92 c 0 1.105469 -0.894531 2 -2 2 s -2 -0.894531 -2 -2 s 0.894531 -2 2 -2 s 2 0.894531 2 2 z m 0 0"/>
        <path d="m 84 75 c 0 1.105469 -0.894531 2 -2 2 s -2 -0.894531 -2 -2 s 0.894531 -2 2 -2 s 2 0.894531 2 2 z m 0 0"/>
        <path d="m 102 75 c 0 1.105469 -0.894531 2 -2 2 s -2 -0.894531 -2 -2 s 0.894531 -2 2 -2 s 2 0.894531 2 2 z m 0 0"/>
        <path d="m 83.5 59 c 0 1.105469 -0.894531 2 -2 2 s -2 -0.894531 -2 -2 s 0.894531 -2 2 -2 s 2 0.894531 2 2 z m 0 0"/>
        <path d="m 83.5 44.5 c 0 1.105469 -0.894531 2 -2 2 s -2 -0.894531 -2 -2 s 0.894531 -2 2 -2 s 2 0.894531 2 2 z m 0 0"/>
        <path d="m 66 44.5 c 0 1.105469 -0.894531 2 -2 2 s -2 -0.894531 -2 -2 s 0.894531 -2 2 -2 s 2 0.894531 2 2 z m 0 0"/>
        <path d="m 48.5 44.5 c 0 1.105469 -0.894531 2 -2 2 s -2 -0.894531 -2 -2 s 0.894531 -2 2 -2 s 2 0.894531 2 2 z m 0 0"/>
        <path d="m 30 44.5 c 0 1.105469 -0.894531 2 -2 2 s -2 -0.894531 -2 -2 s 0.894531 -2 2 -2 s 2 0.894531 2 2 z m 0 0"/>
        <path d="m 48.5 28 c 0 1.105469 -0.894531 2 -2 2 s -2 -0.894531 -2 -2 s 0.894531 -2 2 -2 s 2 0.894531 2 2 z m 0 0"/>
        <path d="m 83.5 28 c 0 1.105469 -0.894531 2 -2 2 s -2 -0.894531 -2 -2 s 0.894531 -2 2 -2 s 2 0.894531 2 2 z m 0 0"/>
        <path d="m 102 44.5 c 0 1.105469 -0.894531 2 -2 2 s -2 -0.894531 -2 -2 s 0.894531 -2 2 -2 s 2 0.894531 2 2 z m 0 0"/>
        <path d="m 102 59 c 0 1.105469 -0.894531 2 -2 2 s -2 -0.894531 -2 -2 s 0.894531 -2 2 -2 s 2 0.894531 2 2 z m 0 0"/>
        <path d="m 48.5 59 c 0 1.105469 -0.894531 2 -2 2 s -2 -0.894531 -2 -2 s 0.894531 -2 2 -2 s 2 0.894531 2 2 z m 0 0"/>
        <path d="m 66 59 c 0 1.105469 -0.894531 2 -2 2 s -2 -0.894531 -2 -2 s 0.894531 -2 2 -2 s 2 0.894531 2 2 z m 0 0"/>
        <path d="m 66 28 c 0 1.105469 -0.894531 2 -2 2 s -2 -0.894531 -2 -2 s 0.894531 -2 2 -2 s 2 0.894531 2 2 z m 0 0"/>
        <path d="m 66 92 c 0 1.105469 -0.894531 2 -2 2 s -2 -0.894531 -2 -2 s 0.894531 -2 2 -2 s 2 0.894531 2 2 z m 0 0"/>
    </g>
    <path d="m 26.683594 24.667969 c -1.582032 -0.046875 -2.375 1.753906 -1.988282 3.117187 c 0.773438 13.207032 5.136719 27.210938 15.699219 35.867188 c 3.976563 3.265625 8.710938 5.570312 13.703125 6.804687 c -7.3125 4.304688 -10.535156 13.195313 -10.503906 21.328125 c 0.527344 2.085938 3.152344 1.570313 4.710938 1.386719 c 7.429687 -0.664063 13.9375 -6.242187 16.121093 -13.308594 c 2.371094 7.875 10.15625 13.613281 18.398438 13.460938 c 1.683593 0.339843 2.9375 -1.453125 2.453125 -3 c -0.46875 -7.667969 -3.589844 -15.835938 -10.523438 -19.867188 c 11.492188 -2.628906 20.765625 -11.640625 24.992188 -22.472656 c 2.746094 -6.902344 4.382812 -14.339844 4.386718 -21.773437 c -0.515624 -2.078126 -3.109374 -1.546876 -4.664062 -1.46875 c -11.117188 0.371093 -21.957031 6.0625 -28.128906 15.390624 c -3.28125 4.726563 -5.480469 10.128907 -6.914063 15.679688 c -2.875 -11.875 -10.3125 -23.34375 -21.941406 -28.128906 c -4.972656 -2.128906 -10.410156 -3.023438 -15.800781 -3.015625 z m 2.207031 4.1875 c 9.722656 0.234375 19.4375 4.8125 24.945313 12.976562 c 5.191406 7.542969 7.929687 16.65625 8.382812 25.761719 c -9.71875 -0.234375 -19.4375 -4.808594 -24.945312 -12.972656 c -5.183594 -7.519532 -7.933594 -16.6875 -8.382813 -25.765625 z m 71.070313 0 c -0.609376 10.804687 -4.195313 21.925781 -11.8125 29.847656 c -5.589844 5.746094 -13.601563 8.597656 -21.511719 8.890625 c 0.609375 -10.804688 4.195312 -21.921875 11.8125 -29.84375 c 5.601562 -5.757812 13.589843 -8.589844 21.511719 -8.894531 z m -37.761719 43.246093 c -0.613281 6.648438 -3.984375 14.015626 -10.84375 16.113282 c -2.476563 1.144531 -4.464844 0.882812 -3.125 -2.132813 c 1.15625 -6.0625 5.117187 -12.1875 11.507812 -13.539062 c 0.808594 -0.203125 1.632813 -0.347657 2.460938 -0.441407 z m 4.457031 0 c 5.976562 0.371094 11.082031 4.777344 12.902344 10.386719 c 0.804687 2.503907 3.207031 8.28125 -1.511719 5.894531 c -7.207031 -1.855468 -10.75 -9.441406 -11.390625 -16.28125 z m 0 0" fill="url(#b)"/>
</svg>
