<?xml version="1.0" encoding="UTF-8"?>
<svg height="128px" viewBox="0 0 128 128" width="128px" xmlns="http://www.w3.org/2000/svg" xmlns:xlink="http://www.w3.org/1999/xlink">
    <linearGradient id="a" gradientTransform="matrix(0.232143 0 0 0.328947 -8.56656 263.826935)" gradientUnits="userSpaceOnUse" x1="88.595886" x2="536.595886" y1="-449.394012" y2="-449.394012">
        <stop offset="0" stop-color="#deddda"/>
        <stop offset="0.0384615" stop-color="#deddda"/>
        <stop offset="0.0768555" stop-color="#c0bfbc"/>
        <stop offset="0.923077" stop-color="#c0bfbc"/>
        <stop offset="0.961538" stop-color="#deddda"/>
        <stop offset="1" stop-color="#c0bfbc"/>
    </linearGradient>
    <linearGradient id="b" gradientUnits="userSpaceOnUse" x1="28" x2="100" y1="28" y2="96">
        <stop offset="0" stop-color="#3584e4"/>
        <stop offset="1" stop-color="#00dac7"/>
    </linearGradient>
    <clipPath id="c">
        <rect height="128" width="128"/>
    </clipPath>
    <clipPath id="d">
        <rect height="128" width="128"/>
    </clipPath>
    <filter id="e" height="100%" width="100%" x="0%" y="0%">
        <feColorMatrix in="SourceGraphic" type="matrix" values="0 0 0 0 1 0 0 0 0 1 0 0 0 0 1 0 0 0 1 0"/>
    </filter>
    <mask id="f">
        <g clip-path="url(#d)" filter="url(#e)">
            <g clip-path="url(#c)">
                <path d="m 48 60 c 0 1.105469 -0.894531 2 -2 2 s -2 -0.894531 -2 -2 s 0.894531 -2 2 -2 s 2 0.894531 2 2 z m 0 0" fill="#deddda"/>
                <path d="m 20 16 h 88 c 4.417969 0 8 3.582031 8 8 v 84 c 0 4.417969 -3.582031 8 -8 8 h -88 c -4.417969 0 -8 -3.582031 -8 -8 v -84 c 0 -4.417969 3.582031 -8 8 -8 z m 0 0" fill="url(#a)"/>
                <path d="m 20 12 h 88 c 4.417969 0 8 3.4375 8 7.679688 v 80.640624 c 0 4.242188 -3.582031 7.679688 -8 7.679688 h -88 c -4.417969 0 -8 -3.4375 -8 -7.679688 v -80.640624 c 0 -4.242188 3.582031 -7.679688 8 -7.679688 z m 0 0" fill="#eeeeee"/>
                <path d="m 32 28 c 0 2.210938 -1.789062 4 -4 4 s -4 -1.789062 -4 -4 s 1.789062 -4 4 -4 s 4 1.789062 4 4 z m 0 0" fill="#b8b7b5"/>
                <path d="m 104 28 c 0 2.210938 -1.789062 4 -4 4 s -4 -1.789062 -4 -4 s 1.789062 -4 4 -4 s 4 1.789062 4 4 z m 0 0" fill="#b8b7b5"/>
                <path d="m 104 96 c 0 2.210938 -1.789062 4 -4 4 s -4 -1.789062 -4 -4 s 1.789062 -4 4 -4 s 4 1.789062 4 4 z m 0 0" fill="#b8b7b5"/>
                <path d="m 32 96 c 0 2.210938 -1.789062 4 -4 4 s -4 -1.789062 -4 -4 s 1.789062 -4 4 -4 s 4 1.789062 4 4 z m 0 0" fill="#b8b7b5"/>
                <path d="m 30 78 c 0 1.105469 -0.894531 2 -2 2 s -2 -0.894531 -2 -2 s 0.894531 -2 2 -2 s 2 0.894531 2 2 z m 0 0" fill="#cac9c6"/>
                <path d="m 48 78 c 0 1.105469 -0.894531 2 -2 2 s -2 -0.894531 -2 -2 s 0.894531 -2 2 -2 s 2 0.894531 2 2 z m 0 0" fill="#cac9c6"/>
                <path d="m 30 60 c 0 1.105469 -0.894531 2 -2 2 s -2 -0.894531 -2 -2 s 0.894531 -2 2 -2 s 2 0.894531 2 2 z m 0 0" fill="#cac9c6"/>
                <path d="m 66 78 c 0 1.105469 -0.894531 2 -2 2 s -2 -0.894531 -2 -2 s 0.894531 -2 2 -2 s 2 0.894531 2 2 z m 0 0" fill="#cac9c6"/>
                <path d="m 48 96 c 0 1.105469 -0.894531 2 -2 2 s -2 -0.894531 -2 -2 s 0.894531 -2 2 -2 s 2 0.894531 2 2 z m 0 0" fill="#cac9c6"/>
                <path d="m 86 96 c 0 1.105469 -0.894531 2 -2 2 s -2 -0.894531 -2 -2 s 0.894531 -2 2 -2 s 2 0.894531 2 2 z m 0 0" fill="#cac9c6"/>
                <path d="m 86 78 c 0 1.105469 -0.894531 2 -2 2 s -2 -0.894531 -2 -2 s 0.894531 -2 2 -2 s 2 0.894531 2 2 z m 0 0" fill="#cac9c6"/>
                <path d="m 102 78 c 0 1.105469 -0.894531 2 -2 2 s -2 -0.894531 -2 -2 s 0.894531 -2 2 -2 s 2 0.894531 2 2 z m 0 0" fill="#cac9c6"/>
                <path d="m 86 60 c 0 1.105469 -0.894531 2 -2 2 s -2 -0.894531 -2 -2 s 0.894531 -2 2 -2 s 2 0.894531 2 2 z m 0 0" fill="#cac9c6"/>
                <path d="m 86 44 c 0 1.105469 -0.894531 2 -2 2 s -2 -0.894531 -2 -2 s 0.894531 -2 2 -2 s 2 0.894531 2 2 z m 0 0" fill="#cac9c6"/>
                <path d="m 66 44 c 0 1.105469 -0.894531 2 -2 2 s -2 -0.894531 -2 -2 s 0.894531 -2 2 -2 s 2 0.894531 2 2 z m 0 0" fill="#cac9c6"/>
                <path d="m 48 44 c 0 1.105469 -0.894531 2 -2 2 s -2 -0.894531 -2 -2 s 0.894531 -2 2 -2 s 2 0.894531 2 2 z m 0 0" fill="#cac9c6"/>
                <path d="m 30 44 c 0 1.105469 -0.894531 2 -2 2 s -2 -0.894531 -2 -2 s 0.894531 -2 2 -2 s 2 0.894531 2 2 z m 0 0" fill="#cac9c6"/>
                <path d="m 48 28 c 0 1.105469 -0.894531 2 -2 2 s -2 -0.894531 -2 -2 s 0.894531 -2 2 -2 s 2 0.894531 2 2 z m 0 0" fill="#cac9c6"/>
                <path d="m 86 28 c 0 1.105469 -0.894531 2 -2 2 s -2 -0.894531 -2 -2 s 0.894531 -2 2 -2 s 2 0.894531 2 2 z m 0 0" fill="#cac9c6"/>
                <path d="m 102 44 c 0 1.105469 -0.894531 2 -2 2 s -2 -0.894531 -2 -2 s 0.894531 -2 2 -2 s 2 0.894531 2 2 z m 0 0" fill="#cac9c6"/>
                <path d="m 102 60 c 0 1.105469 -0.894531 2 -2 2 s -2 -0.894531 -2 -2 s 0.894531 -2 2 -2 s 2 0.894531 2 2 z m 0 0" fill="#cac9c6"/>
                <path d="m 48 60 c 0 1.105469 -0.894531 2 -2 2 s -2 -0.894531 -2 -2 s 0.894531 -2 2 -2 s 2 0.894531 2 2 z m 0 0" fill="#cac9c6"/>
                <path d="m 66 60 c 0 1.105469 -0.894531 2 -2 2 s -2 -0.894531 -2 -2 s 0.894531 -2 2 -2 s 2 0.894531 2 2 z m 0 0" fill="#cac9c6"/>
                <path d="m 66 28 c 0 1.105469 -0.894531 2 -2 2 s -2 -0.894531 -2 -2 s 0.894531 -2 2 -2 s 2 0.894531 2 2 z m 0 0" fill="#cac9c6"/>
                <path d="m 66 96 c 0 1.105469 -0.894531 2 -2 2 s -2 -0.894531 -2 -2 s 0.894531 -2 2 -2 s 2 0.894531 2 2 z m 0 0" fill="#cac9c6"/>
                <path d="m 64.019531 26.996094 c -0.421875 -0.007813 -0.824219 0.164062 -1.113281 0.472656 s -0.433594 0.726562 -0.402344 1.144531 c 0 0 0.957032 12.144531 -2.929687 24.171875 c -1.945313 6.015625 -5.082031 11.949219 -10.070313 16.355469 c -4.984375 4.40625 -11.8125 7.359375 -21.503906 7.359375 c -0.605469 0 -1.152344 0.367188 -1.386719 0.925781 c -0.230469 0.5625 -0.101562 1.207031 0.324219 1.636719 l 18 18 c 0.285156 0.28125 0.664062 0.4375 1.0625 0.4375 h 38 c 0.429688 0 0.835938 -0.183594 1.121094 -0.503906 l 15.972656 -17.964844 l 0.007812 -0.011719 c 0.007813 -0.007812 0.011719 -0.015625 0.019532 -0.023437 c 0.015625 -0.019532 0.03125 -0.035156 0.046875 -0.054688 c 0.007812 -0.007812 0.011719 -0.015625 0.019531 -0.023437 c 0 -0.003907 0 -0.003907 0 -0.007813 c 0.023438 -0.023437 0.039062 -0.050781 0.058594 -0.078125 c 0.011718 -0.019531 0.027344 -0.039062 0.039062 -0.0625 c 0.003906 -0.007812 0.011719 -0.015625 0.015625 -0.023437 c 0.011719 -0.019532 0.023438 -0.042969 0.035157 -0.0625 c 0.003906 -0.011719 0.007812 -0.019532 0.015624 -0.027344 c 0.007813 -0.023438 0.019532 -0.042969 0.027344 -0.066406 c 0.003906 -0.007813 0.007813 -0.019532 0.011719 -0.027344 c 0.007813 -0.023438 0.015625 -0.046875 0.027344 -0.070312 c 0 -0.007813 0.003906 -0.019532 0.007812 -0.027344 c 0.007813 -0.023438 0.015625 -0.046875 0.023438 -0.070313 c 0 -0.007812 0.003906 -0.019531 0.007812 -0.03125 c 0.003907 -0.019531 0.007813 -0.042969 0.011719 -0.066406 c 0.003906 -0.011719 0.007812 -0.023437 0.007812 -0.03125 c 0 -0.003906 0 -0.007813 0.003907 -0.015625 c 0.003906 -0.027344 0.007812 -0.058594 0.007812 -0.089844 c 0.003907 -0.03125 0.007813 -0.066406 0.011719 -0.101562 c 0 -0.019532 0 -0.039063 0 -0.058594 v -0.042969 c 0 -0.125 -0.003906 -12.488281 -4.59375 -25.039062 c -2.304688 -6.308594 -5.773438 -12.695313 -11.078125 -17.582031 c -5.304687 -4.886719 -12.464844 -8.214844 -21.808594 -8.339844 z m 1.480469 3.148437 c 7.847656 0.445313 13.777344 3.234375 18.296875 7.398438 c 4.820313 4.441406 8.101563 10.398437 10.296875 16.40625 c 3.949219 10.8125 4.253906 20.496093 4.292969 22.550781 h -55.210938 c 3.15625 -1.355469 5.976563 -3.042969 8.320313 -5.109375 c 5.511718 -4.878906 8.875 -11.320313 10.929687 -17.683594 c 3.652344 -11.292969 3.210938 -21.1875 3.074219 -23.5625 z m -33.878906 49.355469 h 65.039062 l -13.332031 15 h -36.707031 z m 0 0" fill="url(#b)"/>
            </g>
        </g>
    </mask>
    <mask id="g">
        <g filter="url(#e)">
            <rect fill-opacity="0.8" height="128" width="128"/>
        </g>
    </mask>
    <linearGradient id="h" gradientTransform="matrix(0 0.37 -0.98462 0 295.38501 -30.360001)" gradientUnits="userSpaceOnUse" x1="300" x2="428" y1="235" y2="235">
        <stop offset="0" stop-color="#f9f06b"/>
        <stop offset="1" stop-color="#f5c211"/>
    </linearGradient>
    <clipPath id="i">
        <rect height="128" width="128"/>
    </clipPath>
    <clipPath id="j">
        <rect height="128" width="128"/>
    </clipPath>
    <path d="m 48 60 c 0 1.105469 -0.894531 2 -2 2 s -2 -0.894531 -2 -2 s 0.894531 -2 2 -2 s 2 0.894531 2 2 z m 0 0" fill="#deddda"/>
    <path d="m 20 16 h 88 c 4.417969 0 8 3.582031 8 8 v 84 c 0 4.417969 -3.582031 8 -8 8 h -88 c -4.417969 0 -8 -3.582031 -8 -8 v -84 c 0 -4.417969 3.582031 -8 8 -8 z m 0 0" fill="url(#a)"/>
    <path d="m 20 12 h 88 c 4.417969 0 8 3.4375 8 7.679688 v 80.640624 c 0 4.242188 -3.582031 7.679688 -8 7.679688 h -88 c -4.417969 0 -8 -3.4375 -8 -7.679688 v -80.640624 c 0 -4.242188 3.582031 -7.679688 8 -7.679688 z m 0 0" fill="#eeeeee"/>
    <path d="m 32 28 c 0 2.210938 -1.789062 4 -4 4 s -4 -1.789062 -4 -4 s 1.789062 -4 4 -4 s 4 1.789062 4 4 z m 0 0" fill="#b8b7b5"/>
    <path d="m 104 28 c 0 2.210938 -1.789062 4 -4 4 s -4 -1.789062 -4 -4 s 1.789062 -4 4 -4 s 4 1.789062 4 4 z m 0 0" fill="#b8b7b5"/>
    <path d="m 104 96 c 0 2.210938 -1.789062 4 -4 4 s -4 -1.789062 -4 -4 s 1.789062 -4 4 -4 s 4 1.789062 4 4 z m 0 0" fill="#b8b7b5"/>
    <path d="m 32 96 c 0 2.210938 -1.789062 4 -4 4 s -4 -1.789062 -4 -4 s 1.789062 -4 4 -4 s 4 1.789062 4 4 z m 0 0" fill="#b8b7b5"/>
    <g fill="#cac9c6">
        <path d="m 30 78 c 0 1.105469 -0.894531 2 -2 2 s -2 -0.894531 -2 -2 s 0.894531 -2 2 -2 s 2 0.894531 2 2 z m 0 0"/>
        <path d="m 48 78 c 0 1.105469 -0.894531 2 -2 2 s -2 -0.894531 -2 -2 s 0.894531 -2 2 -2 s 2 0.894531 2 2 z m 0 0"/>
        <path d="m 30 60 c 0 1.105469 -0.894531 2 -2 2 s -2 -0.894531 -2 -2 s 0.894531 -2 2 -2 s 2 0.894531 2 2 z m 0 0"/>
        <path d="m 66 78 c 0 1.105469 -0.894531 2 -2 2 s -2 -0.894531 -2 -2 s 0.894531 -2 2 -2 s 2 0.894531 2 2 z m 0 0"/>
        <path d="m 48 96 c 0 1.105469 -0.894531 2 -2 2 s -2 -0.894531 -2 -2 s 0.894531 -2 2 -2 s 2 0.894531 2 2 z m 0 0"/>
        <path d="m 86 96 c 0 1.105469 -0.894531 2 -2 2 s -2 -0.894531 -2 -2 s 0.894531 -2 2 -2 s 2 0.894531 2 2 z m 0 0"/>
        <path d="m 86 78 c 0 1.105469 -0.894531 2 -2 2 s -2 -0.894531 -2 -2 s 0.894531 -2 2 -2 s 2 0.894531 2 2 z m 0 0"/>
        <path d="m 102 78 c 0 1.105469 -0.894531 2 -2 2 s -2 -0.894531 -2 -2 s 0.894531 -2 2 -2 s 2 0.894531 2 2 z m 0 0"/>
        <path d="m 86 60 c 0 1.105469 -0.894531 2 -2 2 s -2 -0.894531 -2 -2 s 0.894531 -2 2 -2 s 2 0.894531 2 2 z m 0 0"/>
        <path d="m 86 44 c 0 1.105469 -0.894531 2 -2 2 s -2 -0.894531 -2 -2 s 0.894531 -2 2 -2 s 2 0.894531 2 2 z m 0 0"/>
        <path d="m 66 44 c 0 1.105469 -0.894531 2 -2 2 s -2 -0.894531 -2 -2 s 0.894531 -2 2 -2 s 2 0.894531 2 2 z m 0 0"/>
        <path d="m 48 44 c 0 1.105469 -0.894531 2 -2 2 s -2 -0.894531 -2 -2 s 0.894531 -2 2 -2 s 2 0.894531 2 2 z m 0 0"/>
        <path d="m 30 44 c 0 1.105469 -0.894531 2 -2 2 s -2 -0.894531 -2 -2 s 0.894531 -2 2 -2 s 2 0.894531 2 2 z m 0 0"/>
        <path d="m 48 28 c 0 1.105469 -0.894531 2 -2 2 s -2 -0.894531 -2 -2 s 0.894531 -2 2 -2 s 2 0.894531 2 2 z m 0 0"/>
        <path d="m 86 28 c 0 1.105469 -0.894531 2 -2 2 s -2 -0.894531 -2 -2 s 0.894531 -2 2 -2 s 2 0.894531 2 2 z m 0 0"/>
        <path d="m 102 44 c 0 1.105469 -0.894531 2 -2 2 s -2 -0.894531 -2 -2 s 0.894531 -2 2 -2 s 2 0.894531 2 2 z m 0 0"/>
        <path d="m 102 60 c 0 1.105469 -0.894531 2 -2 2 s -2 -0.894531 -2 -2 s 0.894531 -2 2 -2 s 2 0.894531 2 2 z m 0 0"/>
        <path d="m 48 60 c 0 1.105469 -0.894531 2 -2 2 s -2 -0.894531 -2 -2 s 0.894531 -2 2 -2 s 2 0.894531 2 2 z m 0 0"/>
        <path d="m 66 60 c 0 1.105469 -0.894531 2 -2 2 s -2 -0.894531 -2 -2 s 0.894531 -2 2 -2 s 2 0.894531 2 2 z m 0 0"/>
        <path d="m 66 28 c 0 1.105469 -0.894531 2 -2 2 s -2 -0.894531 -2 -2 s 0.894531 -2 2 -2 s 2 0.894531 2 2 z m 0 0"/>
        <path d="m 66 96 c 0 1.105469 -0.894531 2 -2 2 s -2 -0.894531 -2 -2 s 0.894531 -2 2 -2 s 2 0.894531 2 2 z m 0 0"/>
    </g>
    <path d="m 64.019531 26.996094 c -0.421875 -0.007813 -0.824219 0.164062 -1.113281 0.472656 s -0.433594 0.726562 -0.402344 1.144531 c 0 0 0.957032 12.144531 -2.929687 24.171875 c -1.945313 6.015625 -5.082031 11.949219 -10.070313 16.355469 c -4.984375 4.40625 -11.8125 7.359375 -21.503906 7.359375 c -0.605469 0 -1.152344 0.367188 -1.386719 0.925781 c -0.230469 0.5625 -0.101562 1.207031 0.324219 1.636719 l 18 18 c 0.285156 0.28125 0.664062 0.4375 1.0625 0.4375 h 38 c 0.429688 0 0.835938 -0.183594 1.121094 -0.503906 l 15.972656 -17.964844 l 0.007812 -0.011719 c 0.007813 -0.007812 0.011719 -0.015625 0.019532 -0.023437 c 0.015625 -0.019532 0.03125 -0.035156 0.046875 -0.054688 c 0.007812 -0.007812 0.011719 -0.015625 0.019531 -0.023437 c 0 -0.003907 0 -0.003907 0 -0.007813 c 0.023438 -0.023437 0.039062 -0.050781 0.058594 -0.078125 c 0.011718 -0.019531 0.027344 -0.039062 0.039062 -0.0625 c 0.003906 -0.007812 0.011719 -0.015625 0.015625 -0.023437 c 0.011719 -0.019532 0.023438 -0.042969 0.035157 -0.0625 c 0.003906 -0.011719 0.007812 -0.019532 0.015624 -0.027344 c 0.007813 -0.023438 0.019532 -0.042969 0.027344 -0.066406 c 0.003906 -0.007813 0.007813 -0.019532 0.011719 -0.027344 c 0.007813 -0.023438 0.015625 -0.046875 0.027344 -0.070312 c 0 -0.007813 0.003906 -0.019532 0.007812 -0.027344 c 0.007813 -0.023438 0.015625 -0.046875 0.023438 -0.070313 c 0 -0.007812 0.003906 -0.019531 0.007812 -0.03125 c 0.003907 -0.019531 0.007813 -0.042969 0.011719 -0.066406 c 0.003906 -0.011719 0.007812 -0.023437 0.007812 -0.03125 c 0 -0.003906 0 -0.007813 0.003907 -0.015625 c 0.003906 -0.027344 0.007812 -0.058594 0.007812 -0.089844 c 0.003907 -0.03125 0.007813 -0.066406 0.011719 -0.101562 c 0 -0.019532 0 -0.039063 0 -0.058594 v -0.042969 c 0 -0.125 -0.003906 -12.488281 -4.59375 -25.039062 c -2.304688 -6.308594 -5.773438 -12.695313 -11.078125 -17.582031 c -5.304687 -4.886719 -12.464844 -8.214844 -21.808594 -8.339844 z m 1.480469 3.148437 c 7.847656 0.445313 13.777344 3.234375 18.296875 7.398438 c 4.820313 4.441406 8.101563 10.398437 10.296875 16.40625 c 3.949219 10.8125 4.253906 20.496093 4.292969 22.550781 h -55.210938 c 3.15625 -1.355469 5.976563 -3.042969 8.320313 -5.109375 c 5.511718 -4.878906 8.875 -11.320313 10.929687 -17.683594 c 3.652344 -11.292969 3.210938 -21.1875 3.074219 -23.5625 z m -33.878906 49.355469 h 65.039062 l -13.332031 15 h -36.707031 z m 0 0" fill="url(#b)"/>
    <g clip-path="url(#j)" mask="url(#f)">
        <g clip-path="url(#i)" mask="url(#g)">
            <path d="m 128 80.640625 v 47.359375 h -128 v -47.359375 z m 0 0" fill="url(#h)"/>
            <path d="m 13.308594 80.640625 l 47.355468 47.359375 h 21.214844 l -47.359375 -47.359375 z m 42.421875 0 l 47.363281 47.359375 h 21.214844 l -47.363282 -47.359375 z m 42.429687 0 l 29.839844 29.839844 v -21.210938 l -8.628906 -8.628906 z m -98.160156 7.90625 v 21.214844 l 18.238281 18.238281 h 21.214844 z m 0 0"/>
        </g>
    </g>
</svg>
