<?xml version="1.0" encoding="UTF-8" standalone="no"?>
<svg
   xmlns:dc="http://purl.org/dc/elements/1.1/"
   xmlns:cc="http://creativecommons.org/ns#"
   xmlns:rdf="http://www.w3.org/1999/02/22-rdf-syntax-ns#"
   xmlns:svg="http://www.w3.org/2000/svg"
   xmlns="http://www.w3.org/2000/svg"
   xmlns:xlink="http://www.w3.org/1999/xlink"
   xmlns:sodipodi="http://sodipodi.sourceforge.net/DTD/sodipodi-0.dtd"
   xmlns:inkscape="http://www.inkscape.org/namespaces/inkscape"
   height="128px"
   viewBox="0 0 128 128"
   width="128px"
   version="1.1"
   id="svg2165"
   sodipodi:docname="io.github.lainsce.DotMatrixDevel.svg"
   inkscape:version="1.0.2 (e86c870879, 2021-01-15)">
  <metadata
     id="metadata2171">
    <rdf:RDF>
      <cc:Work
         rdf:about="">
        <dc:format>image/svg+xml</dc:format>
        <dc:type
           rdf:resource="http://purl.org/dc/dcmitype/StillImage" />
      </cc:Work>
    </rdf:RDF>
  </metadata>
  <defs
     id="defs2169">
    <linearGradient
       inkscape:collect="always"
       xlink:href="#b"
       id="linearGradient1728"
       x1="65"
       y1="12"
       x2="65"
       y2="108"
       gradientUnits="userSpaceOnUse"
       gradientTransform="translate(0.00816608,0.21745383)" />
    <linearGradient
       id="linearGradient2186"
       gradientUnits="userSpaceOnUse"
       x1="64"
       x2="64"
       y1="26"
       y2="98">
      <stop
         offset="0"
         stop-color="#33d17a"
         id="stop1050" />
      <stop
         offset="1"
         stop-color="#33aad1"
         id="stop1052" />
    </linearGradient>
  </defs>
  <sodipodi:namedview
     pagecolor="#ffffff"
     bordercolor="#666666"
     borderopacity="1"
     objecttolerance="10"
     gridtolerance="10"
     guidetolerance="10"
     inkscape:pageopacity="0"
     inkscape:pageshadow="2"
     inkscape:window-width="2560"
     inkscape:window-height="1014"
     id="namedview2167"
     showgrid="false"
     inkscape:zoom="6.3783976"
     inkscape:cx="64"
     inkscape:cy="64"
     inkscape:window-x="0"
     inkscape:window-y="0"
     inkscape:window-maximized="1"
     inkscape:current-layer="svg2165" />
  <linearGradient
     id="a"
     gradientTransform="matrix(0.232143 0 0 0.328947 -8.56656 263.826935)"
     gradientUnits="userSpaceOnUse"
     x1="88.595886"
     x2="536.595886"
     y1="-449.394012"
     y2="-449.394012">
    <stop
       offset="0"
       stop-color="#deddda"
       id="stop1991" />
    <stop
       offset="0.0384615"
       stop-color="#deddda"
       id="stop1993" />
    <stop
       offset="0.0768555"
       stop-color="#c0bfbc"
       id="stop1995" />
    <stop
       offset="0.923077"
       stop-color="#c0bfbc"
       id="stop1997" />
    <stop
       offset="0.961538"
       stop-color="#deddda"
       id="stop1999" />
    <stop
       offset="1"
       stop-color="#c0bfbc"
       id="stop2001" />
  </linearGradient>
  <linearGradient
     id="b"
     gradientUnits="userSpaceOnUse"
     x1="64"
     x2="64"
     y1="26"
     y2="98">
    <stop
       offset="0"
       stop-color="#33d17a"
       id="stop2004" />
    <stop
       offset="1"
       stop-color="#33aad1"
       id="stop2006" />
  </linearGradient>
  <clipPath
     id="c">
    <rect
       height="128"
       width="128"
       id="rect2009" />
  </clipPath>
  <clipPath
     id="d">
    <rect
       height="128"
       width="128"
       id="rect2012" />
  </clipPath>
  <filter
     id="e"
     height="100%"
     width="100%"
     x="0%"
     y="0%">
    <feColorMatrix
       in="SourceGraphic"
       type="matrix"
       values="0 0 0 0 1 0 0 0 0 1 0 0 0 0 1 0 0 0 1 0"
       id="feColorMatrix2015" />
  </filter>
  <mask
     id="f">
    <g
       clip-path="url(#d)"
       filter="url(#e)"
       id="g2078">
      <g
         clip-path="url(#c)"
         id="g2076">
        <path
           d="m 48 60 c 0 1.105469 -0.894531 2 -2 2 s -2 -0.894531 -2 -2 s 0.894531 -2 2 -2 s 2 0.894531 2 2 z m 0 0"
           fill="#deddda"
           id="path2018" />
        <path
           d="m 20 16 h 88 c 4.417969 0 8 3.582031 8 8 v 84 c 0 4.417969 -3.582031 8 -8 8 h -88 c -4.417969 0 -8 -3.582031 -8 -8 v -84 c 0 -4.417969 3.582031 -8 8 -8 z m 0 0"
           fill="url(#a)"
           id="path2020" />
        <path
           d="m 20 12 h 88 c 4.417969 0 8 3.4375 8 7.679688 v 80.640624 c 0 4.242188 -3.582031 7.679688 -8 7.679688 h -88 c -4.417969 0 -8 -3.4375 -8 -7.679688 v -80.640624 c 0 -4.242188 3.582031 -7.679688 8 -7.679688 z m 0 0"
           fill="#eeeeee"
           id="path2022" />
        <path
           d="m 32 28 c 0 2.210938 -1.789062 4 -4 4 s -4 -1.789062 -4 -4 s 1.789062 -4 4 -4 s 4 1.789062 4 4 z m 0 0"
           fill="#cccbc9"
           id="path2024" />
        <path
           d="m 104 28 c 0 2.210938 -1.789062 4 -4 4 s -4 -1.789062 -4 -4 s 1.789062 -4 4 -4 s 4 1.789062 4 4 z m 0 0"
           fill="#cccbc9"
           id="path2026" />
        <path
           d="m 104 96 c 0 2.210938 -1.789062 4 -4 4 s -4 -1.789062 -4 -4 s 1.789062 -4 4 -4 s 4 1.789062 4 4 z m 0 0"
           fill="#cccbc9"
           id="path2028" />
        <path
           d="m 32 96 c 0 2.210938 -1.789062 4 -4 4 s -4 -1.789062 -4 -4 s 1.789062 -4 4 -4 s 4 1.789062 4 4 z m 0 0"
           fill="#cccbc9"
           id="path2030" />
        <path
           d="m 30 78 c 0 1.105469 -0.894531 2 -2 2 s -2 -0.894531 -2 -2 s 0.894531 -2 2 -2 s 2 0.894531 2 2 z m 0 0"
           fill="#deddda"
           id="path2032" />
        <path
           d="m 48 78 c 0 1.105469 -0.894531 2 -2 2 s -2 -0.894531 -2 -2 s 0.894531 -2 2 -2 s 2 0.894531 2 2 z m 0 0"
           fill="#deddda"
           id="path2034" />
        <path
           d="m 30 60 c 0 1.105469 -0.894531 2 -2 2 s -2 -0.894531 -2 -2 s 0.894531 -2 2 -2 s 2 0.894531 2 2 z m 0 0"
           fill="#deddda"
           id="path2036" />
        <path
           d="m 66 78 c 0 1.105469 -0.894531 2 -2 2 s -2 -0.894531 -2 -2 s 0.894531 -2 2 -2 s 2 0.894531 2 2 z m 0 0"
           fill="#deddda"
           id="path2038" />
        <path
           d="m 48 96 c 0 1.105469 -0.894531 2 -2 2 s -2 -0.894531 -2 -2 s 0.894531 -2 2 -2 s 2 0.894531 2 2 z m 0 0"
           fill="#deddda"
           id="path2040" />
        <path
           d="m 86 96 c 0 1.105469 -0.894531 2 -2 2 s -2 -0.894531 -2 -2 s 0.894531 -2 2 -2 s 2 0.894531 2 2 z m 0 0"
           fill="#deddda"
           id="path2042" />
        <path
           d="m 86 78 c 0 1.105469 -0.894531 2 -2 2 s -2 -0.894531 -2 -2 s 0.894531 -2 2 -2 s 2 0.894531 2 2 z m 0 0"
           fill="#deddda"
           id="path2044" />
        <path
           d="m 102 78 c 0 1.105469 -0.894531 2 -2 2 s -2 -0.894531 -2 -2 s 0.894531 -2 2 -2 s 2 0.894531 2 2 z m 0 0"
           fill="#deddda"
           id="path2046" />
        <path
           d="m 86 60 c 0 1.105469 -0.894531 2 -2 2 s -2 -0.894531 -2 -2 s 0.894531 -2 2 -2 s 2 0.894531 2 2 z m 0 0"
           fill="#deddda"
           id="path2048" />
        <path
           d="m 86 44 c 0 1.105469 -0.894531 2 -2 2 s -2 -0.894531 -2 -2 s 0.894531 -2 2 -2 s 2 0.894531 2 2 z m 0 0"
           fill="#deddda"
           id="path2050" />
        <path
           d="m 66 44 c 0 1.105469 -0.894531 2 -2 2 s -2 -0.894531 -2 -2 s 0.894531 -2 2 -2 s 2 0.894531 2 2 z m 0 0"
           fill="#deddda"
           id="path2052" />
        <path
           d="m 48 44 c 0 1.105469 -0.894531 2 -2 2 s -2 -0.894531 -2 -2 s 0.894531 -2 2 -2 s 2 0.894531 2 2 z m 0 0"
           fill="#deddda"
           id="path2054" />
        <path
           d="m 30 44 c 0 1.105469 -0.894531 2 -2 2 s -2 -0.894531 -2 -2 s 0.894531 -2 2 -2 s 2 0.894531 2 2 z m 0 0"
           fill="#deddda"
           id="path2056" />
        <path
           d="m 48 28 c 0 1.105469 -0.894531 2 -2 2 s -2 -0.894531 -2 -2 s 0.894531 -2 2 -2 s 2 0.894531 2 2 z m 0 0"
           fill="#deddda"
           id="path2058" />
        <path
           d="m 86 28 c 0 1.105469 -0.894531 2 -2 2 s -2 -0.894531 -2 -2 s 0.894531 -2 2 -2 s 2 0.894531 2 2 z m 0 0"
           fill="#deddda"
           id="path2060" />
        <path
           d="m 102 44 c 0 1.105469 -0.894531 2 -2 2 s -2 -0.894531 -2 -2 s 0.894531 -2 2 -2 s 2 0.894531 2 2 z m 0 0"
           fill="#deddda"
           id="path2062" />
        <path
           d="m 102 60 c 0 1.105469 -0.894531 2 -2 2 s -2 -0.894531 -2 -2 s 0.894531 -2 2 -2 s 2 0.894531 2 2 z m 0 0"
           fill="#deddda"
           id="path2064" />
        <path
           d="m 48 60 c 0 1.105469 -0.894531 2 -2 2 s -2 -0.894531 -2 -2 s 0.894531 -2 2 -2 s 2 0.894531 2 2 z m 0 0"
           fill="#deddda"
           id="path2066" />
        <path
           d="m 66 60 c 0 1.105469 -0.894531 2 -2 2 s -2 -0.894531 -2 -2 s 0.894531 -2 2 -2 s 2 0.894531 2 2 z m 0 0"
           fill="#deddda"
           id="path2068" />
        <path
           d="m 66 28 c 0 1.105469 -0.894531 2 -2 2 s -2 -0.894531 -2 -2 s 0.894531 -2 2 -2 s 2 0.894531 2 2 z m 0 0"
           fill="#deddda"
           id="path2070" />
        <path
           d="m 66 96 c 0 1.105469 -0.894531 2 -2 2 s -2 -0.894531 -2 -2 s 0.894531 -2 2 -2 s 2 0.894531 2 2 z m 0 0"
           fill="#deddda"
           id="path2072" />
        <path
           d="m 64 25.5 c -1.378906 0 -2.5 1.121094 -2.5 2.5 v 32 s -0.035156 3.980469 -1.984375 7.882812 c -1.953125 3.902344 -5.347656 7.617188 -13.515625 7.617188 h -15.5 v -15.5 s 0.027344 -3.394531 1.929688 -6.773438 c 1.902343 -3.378906 5.3125 -6.726562 13.570312 -6.726562 c 1.378906 0 2.5 -1.121094 2.5 -2.5 s -1.121094 -2.5 -2.5 -2.5 c -9.742188 0 -15.332031 4.652344 -17.929688 9.273438 c -2.597656 4.621093 -2.570312 9.226562 -2.570312 9.226562 v 18 c 0 1.378906 1.121094 2.5 2.5 2.5 h 18 c 7.8125 0 12.949219 -3.339844 16.011719 -7.265625 c -0.324219 1.464844 -0.511719 3.046875 -0.511719 4.765625 v 18 c 0 1.378906 1.121094 2.5 2.5 2.5 s 2.5 -1.121094 2.5 -2.5 v -18 c 0 -8.074219 4.09375 -11.476562 8.527344 -13.46875 c 4.429687 -1.996094 8.972656 -2.03125 8.972656 -2.03125 h 13.5 v 33.5 c 0 0.042969 0.003906 0.089844 0.007812 0.132812 c 0.003907 0.089844 0.015626 0.175782 0.03125 0.261719 c 0.011719 0.089844 0.035157 0.175781 0.058594 0.261719 c 0.023438 0.085938 0.054688 0.167969 0.085938 0.25 c 0.035156 0.082031 0.070312 0.164062 0.113281 0.238281 c 0.042969 0.082031 0.089844 0.15625 0.140625 0.230469 c 0.023438 0.035156 0.050781 0.074219 0.074219 0.105469 c 0.082031 0.109375 0.171875 0.207031 0.269531 0.300781 c 0.03125 0.027344 0.0625 0.058594 0.097656 0.085938 c 0.035156 0.027343 0.066406 0.058593 0.101563 0.082031 c 0.179687 0.136719 0.371093 0.246093 0.574219 0.332031 c 0.125 0.050781 0.253906 0.089844 0.382812 0.117188 c 0.042969 0.011718 0.085938 0.019531 0.128906 0.027343 c 0.042969 0.007813 0.089844 0.015625 0.132813 0.023438 c 0.21875 0.023437 0.441406 0.023437 0.664062 -0.011719 c 0.042969 -0.003906 0.085938 -0.011719 0.128907 -0.019531 c 0.128906 -0.027344 0.257812 -0.066407 0.382812 -0.113281 c 0.042969 -0.015626 0.082031 -0.03125 0.125 -0.046876 c 0.039062 -0.019531 0.078125 -0.039062 0.117188 -0.058593 c 0.042968 -0.019531 0.082031 -0.039063 0.121093 -0.0625 c 0.113281 -0.066407 0.222657 -0.140625 0.328125 -0.222657 c 0.035156 -0.027343 0.070313 -0.054687 0.101563 -0.085937 c 0.097656 -0.089844 0.191406 -0.1875 0.273437 -0.289063 c 0.085938 -0.101562 0.160156 -0.214843 0.226563 -0.328124 c 0.042969 -0.078126 0.082031 -0.15625 0.121093 -0.238282 c 0.015626 -0.039062 0.03125 -0.082031 0.046876 -0.121094 c 0.050781 -0.125 0.085937 -0.253906 0.113281 -0.382812 c 0.019531 -0.089844 0.03125 -0.175781 0.039062 -0.261719 c 0.003907 -0.046875 0.007813 -0.089843 0.011719 -0.132812 c 0 -0.027344 0 -0.050781 0 -0.074219 v -36 c 0 -1.378906 -1.121094 -2.5 -2.5 -2.5 h -16 s -5.457031 -0.035156 -11.027344 2.46875 c -2.566406 1.15625 -5.199218 2.980469 -7.296875 5.570312 c 0.820313 -3.144531 0.824219 -5.539062 0.824219 -5.539062 v -32 c 0 -1.378906 -1.121094 -2.5 -2.5 -2.5 z m 0 0"
           fill="url(#b)"
           id="path2074" />
      </g>
    </g>
  </mask>
  <mask
     id="g">
    <g
       filter="url(#e)"
       id="g2083">
      <rect
         fill-opacity="0.8"
         height="128"
         width="128"
         id="rect2081" />
    </g>
  </mask>
  <linearGradient
     id="h"
     gradientTransform="matrix(0 0.37 -0.98462 0 295.38501 -30.360001)"
     gradientUnits="userSpaceOnUse"
     x1="300"
     x2="428"
     y1="235"
     y2="235">
    <stop
       offset="0"
       stop-color="#f9f06b"
       id="stop2086" />
    <stop
       offset="1"
       stop-color="#f5c211"
       id="stop2088" />
  </linearGradient>
  <clipPath
     id="i">
    <rect
       height="128"
       width="128"
       id="rect2091" />
  </clipPath>
  <clipPath
     id="j">
    <rect
       height="128"
       width="128"
       id="rect2094" />
  </clipPath>
  <path
     d="m 48 60 c 0 1.105469 -0.894531 2 -2 2 s -2 -0.894531 -2 -2 s 0.894531 -2 2 -2 s 2 0.894531 2 2 z m 0 0"
     fill="#deddda"
     id="path2097" />
  <path
     d="m 20 16 h 88 c 4.417969 0 8 3.582031 8 8 v 84 c 0 4.417969 -3.582031 8 -8 8 h -88 c -4.417969 0 -8 -3.582031 -8 -8 v -84 c 0 -4.417969 3.582031 -8 8 -8 z m 0 0"
     fill="url(#a)"
     id="path2099" />
  <path
     d="m 20 12 h 88 c 4.417969 0 8 3.4375 8 7.679688 v 80.640624 c 0 4.242188 -3.582031 7.679688 -8 7.679688 h -88 c -4.417969 0 -8 -3.4375 -8 -7.679688 v -80.640624 c 0 -4.242188 3.582031 -7.679688 8 -7.679688 z m 0 0"
     fill="#eeeeee"
     id="path2101" />
  <path
     d="m 32 28 c 0 2.210938 -1.789062 4 -4 4 s -4 -1.789062 -4 -4 s 1.789062 -4 4 -4 s 4 1.789062 4 4 z m 0 0"
     fill="#cccbc9"
     id="path2103" />
  <path
     d="m 104 28 c 0 2.210938 -1.789062 4 -4 4 s -4 -1.789062 -4 -4 s 1.789062 -4 4 -4 s 4 1.789062 4 4 z m 0 0"
     fill="#cccbc9"
     id="path2105" />
  <path
     d="m 104 96 c 0 2.210938 -1.789062 4 -4 4 s -4 -1.789062 -4 -4 s 1.789062 -4 4 -4 s 4 1.789062 4 4 z m 0 0"
     fill="#cccbc9"
     id="path2107" />
  <path
     d="m 32 96 c 0 2.210938 -1.789062 4 -4 4 s -4 -1.789062 -4 -4 s 1.789062 -4 4 -4 s 4 1.789062 4 4 z m 0 0"
     fill="#cccbc9"
     id="path2109" />
  <g
     fill="#deddda"
     id="g2153">
    <path
       d="m 30 78 c 0 1.105469 -0.894531 2 -2 2 s -2 -0.894531 -2 -2 s 0.894531 -2 2 -2 s 2 0.894531 2 2 z m 0 0"
       id="path2111" />
    <path
       d="m 48 78 c 0 1.105469 -0.894531 2 -2 2 s -2 -0.894531 -2 -2 s 0.894531 -2 2 -2 s 2 0.894531 2 2 z m 0 0"
       id="path2113" />
    <path
       d="m 30 60 c 0 1.105469 -0.894531 2 -2 2 s -2 -0.894531 -2 -2 s 0.894531 -2 2 -2 s 2 0.894531 2 2 z m 0 0"
       id="path2115" />
    <path
       d="m 66 78 c 0 1.105469 -0.894531 2 -2 2 s -2 -0.894531 -2 -2 s 0.894531 -2 2 -2 s 2 0.894531 2 2 z m 0 0"
       id="path2117" />
    <path
       d="m 48 96 c 0 1.105469 -0.894531 2 -2 2 s -2 -0.894531 -2 -2 s 0.894531 -2 2 -2 s 2 0.894531 2 2 z m 0 0"
       id="path2119" />
    <path
       d="m 86 96 c 0 1.105469 -0.894531 2 -2 2 s -2 -0.894531 -2 -2 s 0.894531 -2 2 -2 s 2 0.894531 2 2 z m 0 0"
       id="path2121" />
    <path
       d="m 86 78 c 0 1.105469 -0.894531 2 -2 2 s -2 -0.894531 -2 -2 s 0.894531 -2 2 -2 s 2 0.894531 2 2 z m 0 0"
       id="path2123" />
    <path
       d="m 102 78 c 0 1.105469 -0.894531 2 -2 2 s -2 -0.894531 -2 -2 s 0.894531 -2 2 -2 s 2 0.894531 2 2 z m 0 0"
       id="path2125" />
    <path
       d="m 86 60 c 0 1.105469 -0.894531 2 -2 2 s -2 -0.894531 -2 -2 s 0.894531 -2 2 -2 s 2 0.894531 2 2 z m 0 0"
       id="path2127" />
    <path
       d="m 86 44 c 0 1.105469 -0.894531 2 -2 2 s -2 -0.894531 -2 -2 s 0.894531 -2 2 -2 s 2 0.894531 2 2 z m 0 0"
       id="path2129" />
    <path
       d="m 66 44 c 0 1.105469 -0.894531 2 -2 2 s -2 -0.894531 -2 -2 s 0.894531 -2 2 -2 s 2 0.894531 2 2 z m 0 0"
       id="path2131" />
    <path
       d="m 48 44 c 0 1.105469 -0.894531 2 -2 2 s -2 -0.894531 -2 -2 s 0.894531 -2 2 -2 s 2 0.894531 2 2 z m 0 0"
       id="path2133" />
    <path
       d="m 30 44 c 0 1.105469 -0.894531 2 -2 2 s -2 -0.894531 -2 -2 s 0.894531 -2 2 -2 s 2 0.894531 2 2 z m 0 0"
       id="path2135" />
    <path
       d="m 48 28 c 0 1.105469 -0.894531 2 -2 2 s -2 -0.894531 -2 -2 s 0.894531 -2 2 -2 s 2 0.894531 2 2 z m 0 0"
       id="path2137" />
    <path
       d="m 86 28 c 0 1.105469 -0.894531 2 -2 2 s -2 -0.894531 -2 -2 s 0.894531 -2 2 -2 s 2 0.894531 2 2 z m 0 0"
       id="path2139" />
    <path
       d="m 102 44 c 0 1.105469 -0.894531 2 -2 2 s -2 -0.894531 -2 -2 s 0.894531 -2 2 -2 s 2 0.894531 2 2 z m 0 0"
       id="path2141" />
    <path
       d="m 102 60 c 0 1.105469 -0.894531 2 -2 2 s -2 -0.894531 -2 -2 s 0.894531 -2 2 -2 s 2 0.894531 2 2 z m 0 0"
       id="path2143" />
    <path
       d="m 48 60 c 0 1.105469 -0.894531 2 -2 2 s -2 -0.894531 -2 -2 s 0.894531 -2 2 -2 s 2 0.894531 2 2 z m 0 0"
       id="path2145" />
    <path
       d="m 66 60 c 0 1.105469 -0.894531 2 -2 2 s -2 -0.894531 -2 -2 s 0.894531 -2 2 -2 s 2 0.894531 2 2 z m 0 0"
       id="path2147" />
    <path
       d="m 66 28 c 0 1.105469 -0.894531 2 -2 2 s -2 -0.894531 -2 -2 s 0.894531 -2 2 -2 s 2 0.894531 2 2 z m 0 0"
       id="path2149" />
    <path
       d="m 66 96 c 0 1.105469 -0.894531 2 -2 2 s -2 -0.894531 -2 -2 s 0.894531 -2 2 -2 s 2 0.894531 2 2 z m 0 0"
       id="path2151" />
  </g>
  <path
     id="path1142"
     style="color:#000000;font-style:normal;font-variant:normal;font-weight:normal;font-stretch:normal;font-size:medium;line-height:normal;font-family:sans-serif;font-variant-ligatures:normal;font-variant-position:normal;font-variant-caps:normal;font-variant-numeric:normal;font-variant-alternates:normal;font-variant-east-asian:normal;font-feature-settings:normal;font-variation-settings:normal;text-indent:0;text-align:start;text-decoration:none;text-decoration-line:none;text-decoration-style:solid;text-decoration-color:#000000;letter-spacing:normal;word-spacing:normal;text-transform:none;writing-mode:lr-tb;direction:ltr;text-orientation:mixed;dominant-baseline:auto;baseline-shift:baseline;text-anchor:start;white-space:normal;shape-padding:0;shape-margin:0;inline-size:0;clip-rule:nonzero;display:inline;overflow:visible;visibility:visible;isolation:auto;mix-blend-mode:normal;color-interpolation:sRGB;color-interpolation-filters:linearRGB;solid-color:#000000;solid-opacity:1;vector-effect:none;fill:url(#linearGradient1728);fill-opacity:1;fill-rule:nonzero;stroke:none;stroke-linecap:round;stroke-linejoin:round;stroke-miterlimit:4;stroke-dasharray:none;stroke-dashoffset:0;stroke-opacity:1;color-rendering:auto;image-rendering:auto;shape-rendering:auto;text-rendering:auto;enable-background:accumulate;stop-color:#000000"
     d="m 28.008166,25.717454 a 2.5,2.5 0 0 0 -2.5,2.5 2.5,2.5 0 0 0 2.5,2.5 h 31.847656 l -34.05664,64.330078 a 2.5,2.5 0 0 0 1.039062,3.378906 2.5,2.5 0 0 0 3.378906,-1.039062 L 65.512072,30.717454 h 15.996094 v 47.5 c 0,0 -0.03638,4.950381 2.214844,10.015625 2.251219,5.065244 7.347656,10.484375 16.28516,10.484375 a 2.5,2.5 0 0 0 2.5,-2.5 2.5,2.5 0 0 0 -2.5,-2.5 c -7.062504,0 -9.966067,-3.580869 -11.714848,-7.515625 -1.74878,-3.934756 -1.785156,-7.984375 -1.785156,-7.984375 v -47.5 h 13.500004 a 2.5,2.5 0 0 0 2.5,-2.5 2.5,2.5 0 0 0 -2.5,-2.5 H 84.008166 64.02965 Z" />
  <g
     clip-path="url(#j)"
     mask="url(#f)"
     id="g2163">
    <g
       clip-path="url(#i)"
       mask="url(#g)"
       id="g2161">
      <path
         d="m 128 80.640625 v 47.359375 h -128 v -47.359375 z m 0 0"
         fill="url(#h)"
         id="path2157" />
      <path
         d="m 13.308594 80.640625 l 47.355468 47.359375 h 21.214844 l -47.359375 -47.359375 z m 42.421875 0 l 47.363281 47.359375 h 21.214844 l -47.363282 -47.359375 z m 42.429687 0 l 29.839844 29.839844 v -21.210938 l -8.628906 -8.628906 z m -98.160156 7.90625 v 21.214844 l 18.238281 18.238281 h 21.214844 z m 0 0"
         id="path2159" />
    </g>
  </g>
</svg>
