<?xml version="1.0" encoding="UTF-8"?>
<svg height="128px" viewBox="0 0 128 128" width="128px" xmlns="http://www.w3.org/2000/svg" xmlns:xlink="http://www.w3.org/1999/xlink">
    <linearGradient id="a" gradientTransform="matrix(0.232143 0 0 0.328947 -8.56656 263.826935)" gradientUnits="userSpaceOnUse" x1="88.595886" x2="536.595886" y1="-449.394012" y2="-449.394012">
        <stop offset="0" stop-color="#deddda"/>
        <stop offset="0.0384615" stop-color="#deddda"/>
        <stop offset="0.0768555" stop-color="#c0bfbc"/>
        <stop offset="0.923077" stop-color="#c0bfbc"/>
        <stop offset="0.961538" stop-color="#deddda"/>
        <stop offset="1" stop-color="#c0bfbc"/>
    </linearGradient>
    <linearGradient id="b" gradientUnits="userSpaceOnUse" x1="64" x2="64" y1="26" y2="98">
        <stop offset="0" stop-color="#33d17a"/>
        <stop offset="1" stop-color="#33aad1"/>
    </linearGradient>
    <clipPath id="c">
        <rect height="128" width="128"/>
    </clipPath>
    <clipPath id="d">
        <rect height="128" width="128"/>
    </clipPath>
    <filter id="e" height="100%" width="100%" x="0%" y="0%">
        <feColorMatrix in="SourceGraphic" type="matrix" values="0 0 0 0 1 0 0 0 0 1 0 0 0 0 1 0 0 0 1 0"/>
    </filter>
    <mask id="f">
        <g clip-path="url(#d)" filter="url(#e)">
            <g clip-path="url(#c)">
                <path d="m 48 60 c 0 1.105469 -0.894531 2 -2 2 s -2 -0.894531 -2 -2 s 0.894531 -2 2 -2 s 2 0.894531 2 2 z m 0 0" fill="#deddda"/>
                <path d="m 20 16 h 88 c 4.417969 0 8 3.582031 8 8 v 84 c 0 4.417969 -3.582031 8 -8 8 h -88 c -4.417969 0 -8 -3.582031 -8 -8 v -84 c 0 -4.417969 3.582031 -8 8 -8 z m 0 0" fill="url(#a)"/>
                <path d="m 20 12 h 88 c 4.417969 0 8 3.4375 8 7.679688 v 80.640624 c 0 4.242188 -3.582031 7.679688 -8 7.679688 h -88 c -4.417969 0 -8 -3.4375 -8 -7.679688 v -80.640624 c 0 -4.242188 3.582031 -7.679688 8 -7.679688 z m 0 0" fill="#eeeeee"/>
                <path d="m 32 28 c 0 2.210938 -1.789062 4 -4 4 s -4 -1.789062 -4 -4 s 1.789062 -4 4 -4 s 4 1.789062 4 4 z m 0 0" fill="#cccbc9"/>
                <path d="m 104 28 c 0 2.210938 -1.789062 4 -4 4 s -4 -1.789062 -4 -4 s 1.789062 -4 4 -4 s 4 1.789062 4 4 z m 0 0" fill="#cccbc9"/>
                <path d="m 104 96 c 0 2.210938 -1.789062 4 -4 4 s -4 -1.789062 -4 -4 s 1.789062 -4 4 -4 s 4 1.789062 4 4 z m 0 0" fill="#cccbc9"/>
                <path d="m 32 96 c 0 2.210938 -1.789062 4 -4 4 s -4 -1.789062 -4 -4 s 1.789062 -4 4 -4 s 4 1.789062 4 4 z m 0 0" fill="#cccbc9"/>
                <path d="m 30 78 c 0 1.105469 -0.894531 2 -2 2 s -2 -0.894531 -2 -2 s 0.894531 -2 2 -2 s 2 0.894531 2 2 z m 0 0" fill="#deddda"/>
                <path d="m 48 78 c 0 1.105469 -0.894531 2 -2 2 s -2 -0.894531 -2 -2 s 0.894531 -2 2 -2 s 2 0.894531 2 2 z m 0 0" fill="#deddda"/>
                <path d="m 30 60 c 0 1.105469 -0.894531 2 -2 2 s -2 -0.894531 -2 -2 s 0.894531 -2 2 -2 s 2 0.894531 2 2 z m 0 0" fill="#deddda"/>
                <path d="m 66 78 c 0 1.105469 -0.894531 2 -2 2 s -2 -0.894531 -2 -2 s 0.894531 -2 2 -2 s 2 0.894531 2 2 z m 0 0" fill="#deddda"/>
                <path d="m 48 96 c 0 1.105469 -0.894531 2 -2 2 s -2 -0.894531 -2 -2 s 0.894531 -2 2 -2 s 2 0.894531 2 2 z m 0 0" fill="#deddda"/>
                <path d="m 86 96 c 0 1.105469 -0.894531 2 -2 2 s -2 -0.894531 -2 -2 s 0.894531 -2 2 -2 s 2 0.894531 2 2 z m 0 0" fill="#deddda"/>
                <path d="m 86 78 c 0 1.105469 -0.894531 2 -2 2 s -2 -0.894531 -2 -2 s 0.894531 -2 2 -2 s 2 0.894531 2 2 z m 0 0" fill="#deddda"/>
                <path d="m 102 78 c 0 1.105469 -0.894531 2 -2 2 s -2 -0.894531 -2 -2 s 0.894531 -2 2 -2 s 2 0.894531 2 2 z m 0 0" fill="#deddda"/>
                <path d="m 86 60 c 0 1.105469 -0.894531 2 -2 2 s -2 -0.894531 -2 -2 s 0.894531 -2 2 -2 s 2 0.894531 2 2 z m 0 0" fill="#deddda"/>
                <path d="m 86 44 c 0 1.105469 -0.894531 2 -2 2 s -2 -0.894531 -2 -2 s 0.894531 -2 2 -2 s 2 0.894531 2 2 z m 0 0" fill="#deddda"/>
                <path d="m 66 44 c 0 1.105469 -0.894531 2 -2 2 s -2 -0.894531 -2 -2 s 0.894531 -2 2 -2 s 2 0.894531 2 2 z m 0 0" fill="#deddda"/>
                <path d="m 48 44 c 0 1.105469 -0.894531 2 -2 2 s -2 -0.894531 -2 -2 s 0.894531 -2 2 -2 s 2 0.894531 2 2 z m 0 0" fill="#deddda"/>
                <path d="m 30 44 c 0 1.105469 -0.894531 2 -2 2 s -2 -0.894531 -2 -2 s 0.894531 -2 2 -2 s 2 0.894531 2 2 z m 0 0" fill="#deddda"/>
                <path d="m 48 28 c 0 1.105469 -0.894531 2 -2 2 s -2 -0.894531 -2 -2 s 0.894531 -2 2 -2 s 2 0.894531 2 2 z m 0 0" fill="#deddda"/>
                <path d="m 86 28 c 0 1.105469 -0.894531 2 -2 2 s -2 -0.894531 -2 -2 s 0.894531 -2 2 -2 s 2 0.894531 2 2 z m 0 0" fill="#deddda"/>
                <path d="m 102 44 c 0 1.105469 -0.894531 2 -2 2 s -2 -0.894531 -2 -2 s 0.894531 -2 2 -2 s 2 0.894531 2 2 z m 0 0" fill="#deddda"/>
                <path d="m 102 60 c 0 1.105469 -0.894531 2 -2 2 s -2 -0.894531 -2 -2 s 0.894531 -2 2 -2 s 2 0.894531 2 2 z m 0 0" fill="#deddda"/>
                <path d="m 48 60 c 0 1.105469 -0.894531 2 -2 2 s -2 -0.894531 -2 -2 s 0.894531 -2 2 -2 s 2 0.894531 2 2 z m 0 0" fill="#deddda"/>
                <path d="m 66 60 c 0 1.105469 -0.894531 2 -2 2 s -2 -0.894531 -2 -2 s 0.894531 -2 2 -2 s 2 0.894531 2 2 z m 0 0" fill="#deddda"/>
                <path d="m 66 28 c 0 1.105469 -0.894531 2 -2 2 s -2 -0.894531 -2 -2 s 0.894531 -2 2 -2 s 2 0.894531 2 2 z m 0 0" fill="#deddda"/>
                <path d="m 66 96 c 0 1.105469 -0.894531 2 -2 2 s -2 -0.894531 -2 -2 s 0.894531 -2 2 -2 s 2 0.894531 2 2 z m 0 0" fill="#deddda"/>
                <path d="m 64 25.5 c -1.378906 0 -2.5 1.121094 -2.5 2.5 v 32 s -0.035156 3.980469 -1.984375 7.882812 c -1.953125 3.902344 -5.347656 7.617188 -13.515625 7.617188 h -15.5 v -15.5 s 0.027344 -3.394531 1.929688 -6.773438 c 1.902343 -3.378906 5.3125 -6.726562 13.570312 -6.726562 c 1.378906 0 2.5 -1.121094 2.5 -2.5 s -1.121094 -2.5 -2.5 -2.5 c -9.742188 0 -15.332031 4.652344 -17.929688 9.273438 c -2.597656 4.621093 -2.570312 9.226562 -2.570312 9.226562 v 18 c 0 1.378906 1.121094 2.5 2.5 2.5 h 18 c 7.8125 0 12.949219 -3.339844 16.011719 -7.265625 c -0.324219 1.464844 -0.511719 3.046875 -0.511719 4.765625 v 18 c 0 1.378906 1.121094 2.5 2.5 2.5 s 2.5 -1.121094 2.5 -2.5 v -18 c 0 -8.074219 4.09375 -11.476562 8.527344 -13.46875 c 4.429687 -1.996094 8.972656 -2.03125 8.972656 -2.03125 h 13.5 v 33.5 c 0 0.042969 0.003906 0.089844 0.007812 0.132812 c 0.003907 0.089844 0.015626 0.175782 0.03125 0.261719 c 0.011719 0.089844 0.035157 0.175781 0.058594 0.261719 c 0.023438 0.085938 0.054688 0.167969 0.085938 0.25 c 0.035156 0.082031 0.070312 0.164062 0.113281 0.238281 c 0.042969 0.082031 0.089844 0.15625 0.140625 0.230469 c 0.023438 0.035156 0.050781 0.074219 0.074219 0.105469 c 0.082031 0.109375 0.171875 0.207031 0.269531 0.300781 c 0.03125 0.027344 0.0625 0.058594 0.097656 0.085938 c 0.035156 0.027343 0.066406 0.058593 0.101563 0.082031 c 0.179687 0.136719 0.371093 0.246093 0.574219 0.332031 c 0.125 0.050781 0.253906 0.089844 0.382812 0.117188 c 0.042969 0.011718 0.085938 0.019531 0.128906 0.027343 c 0.042969 0.007813 0.089844 0.015625 0.132813 0.023438 c 0.21875 0.023437 0.441406 0.023437 0.664062 -0.011719 c 0.042969 -0.003906 0.085938 -0.011719 0.128907 -0.019531 c 0.128906 -0.027344 0.257812 -0.066407 0.382812 -0.113281 c 0.042969 -0.015626 0.082031 -0.03125 0.125 -0.046876 c 0.039062 -0.019531 0.078125 -0.039062 0.117188 -0.058593 c 0.042968 -0.019531 0.082031 -0.039063 0.121093 -0.0625 c 0.113281 -0.066407 0.222657 -0.140625 0.328125 -0.222657 c 0.035156 -0.027343 0.070313 -0.054687 0.101563 -0.085937 c 0.097656 -0.089844 0.191406 -0.1875 0.273437 -0.289063 c 0.085938 -0.101562 0.160156 -0.214843 0.226563 -0.328124 c 0.042969 -0.078126 0.082031 -0.15625 0.121093 -0.238282 c 0.015626 -0.039062 0.03125 -0.082031 0.046876 -0.121094 c 0.050781 -0.125 0.085937 -0.253906 0.113281 -0.382812 c 0.019531 -0.089844 0.03125 -0.175781 0.039062 -0.261719 c 0.003907 -0.046875 0.007813 -0.089843 0.011719 -0.132812 c 0 -0.027344 0 -0.050781 0 -0.074219 v -36 c 0 -1.378906 -1.121094 -2.5 -2.5 -2.5 h -16 s -5.457031 -0.035156 -11.027344 2.46875 c -2.566406 1.15625 -5.199218 2.980469 -7.296875 5.570312 c 0.820313 -3.144531 0.824219 -5.539062 0.824219 -5.539062 v -32 c 0 -1.378906 -1.121094 -2.5 -2.5 -2.5 z m 0 0" fill="url(#b)"/>
            </g>
        </g>
    </mask>
    <mask id="g">
        <g filter="url(#e)">
            <rect fill-opacity="0.8" height="128" width="128"/>
        </g>
    </mask>
    <linearGradient id="h" gradientTransform="matrix(0 0.37 -0.98462 0 295.38501 -30.360001)" gradientUnits="userSpaceOnUse" x1="300" x2="428" y1="235" y2="235">
        <stop offset="0" stop-color="#f9f06b"/>
        <stop offset="1" stop-color="#f5c211"/>
    </linearGradient>
    <clipPath id="i">
        <rect height="128" width="128"/>
    </clipPath>
    <clipPath id="j">
        <rect height="128" width="128"/>
    </clipPath>
    <path d="m 48 60 c 0 1.105469 -0.894531 2 -2 2 s -2 -0.894531 -2 -2 s 0.894531 -2 2 -2 s 2 0.894531 2 2 z m 0 0" fill="#deddda"/>
    <path d="m 20 16 h 88 c 4.417969 0 8 3.582031 8 8 v 84 c 0 4.417969 -3.582031 8 -8 8 h -88 c -4.417969 0 -8 -3.582031 -8 -8 v -84 c 0 -4.417969 3.582031 -8 8 -8 z m 0 0" fill="url(#a)"/>
    <path d="m 20 12 h 88 c 4.417969 0 8 3.4375 8 7.679688 v 80.640624 c 0 4.242188 -3.582031 7.679688 -8 7.679688 h -88 c -4.417969 0 -8 -3.4375 -8 -7.679688 v -80.640624 c 0 -4.242188 3.582031 -7.679688 8 -7.679688 z m 0 0" fill="#eeeeee"/>
    <path d="m 32 28 c 0 2.210938 -1.789062 4 -4 4 s -4 -1.789062 -4 -4 s 1.789062 -4 4 -4 s 4 1.789062 4 4 z m 0 0" fill="#cccbc9"/>
    <path d="m 104 28 c 0 2.210938 -1.789062 4 -4 4 s -4 -1.789062 -4 -4 s 1.789062 -4 4 -4 s 4 1.789062 4 4 z m 0 0" fill="#cccbc9"/>
    <path d="m 104 96 c 0 2.210938 -1.789062 4 -4 4 s -4 -1.789062 -4 -4 s 1.789062 -4 4 -4 s 4 1.789062 4 4 z m 0 0" fill="#cccbc9"/>
    <path d="m 32 96 c 0 2.210938 -1.789062 4 -4 4 s -4 -1.789062 -4 -4 s 1.789062 -4 4 -4 s 4 1.789062 4 4 z m 0 0" fill="#cccbc9"/>
    <g fill="#deddda">
        <path d="m 30 78 c 0 1.105469 -0.894531 2 -2 2 s -2 -0.894531 -2 -2 s 0.894531 -2 2 -2 s 2 0.894531 2 2 z m 0 0"/>
        <path d="m 48 78 c 0 1.105469 -0.894531 2 -2 2 s -2 -0.894531 -2 -2 s 0.894531 -2 2 -2 s 2 0.894531 2 2 z m 0 0"/>
        <path d="m 30 60 c 0 1.105469 -0.894531 2 -2 2 s -2 -0.894531 -2 -2 s 0.894531 -2 2 -2 s 2 0.894531 2 2 z m 0 0"/>
        <path d="m 66 78 c 0 1.105469 -0.894531 2 -2 2 s -2 -0.894531 -2 -2 s 0.894531 -2 2 -2 s 2 0.894531 2 2 z m 0 0"/>
        <path d="m 48 96 c 0 1.105469 -0.894531 2 -2 2 s -2 -0.894531 -2 -2 s 0.894531 -2 2 -2 s 2 0.894531 2 2 z m 0 0"/>
        <path d="m 86 96 c 0 1.105469 -0.894531 2 -2 2 s -2 -0.894531 -2 -2 s 0.894531 -2 2 -2 s 2 0.894531 2 2 z m 0 0"/>
        <path d="m 86 78 c 0 1.105469 -0.894531 2 -2 2 s -2 -0.894531 -2 -2 s 0.894531 -2 2 -2 s 2 0.894531 2 2 z m 0 0"/>
        <path d="m 102 78 c 0 1.105469 -0.894531 2 -2 2 s -2 -0.894531 -2 -2 s 0.894531 -2 2 -2 s 2 0.894531 2 2 z m 0 0"/>
        <path d="m 86 60 c 0 1.105469 -0.894531 2 -2 2 s -2 -0.894531 -2 -2 s 0.894531 -2 2 -2 s 2 0.894531 2 2 z m 0 0"/>
        <path d="m 86 44 c 0 1.105469 -0.894531 2 -2 2 s -2 -0.894531 -2 -2 s 0.894531 -2 2 -2 s 2 0.894531 2 2 z m 0 0"/>
        <path d="m 66 44 c 0 1.105469 -0.894531 2 -2 2 s -2 -0.894531 -2 -2 s 0.894531 -2 2 -2 s 2 0.894531 2 2 z m 0 0"/>
        <path d="m 48 44 c 0 1.105469 -0.894531 2 -2 2 s -2 -0.894531 -2 -2 s 0.894531 -2 2 -2 s 2 0.894531 2 2 z m 0 0"/>
        <path d="m 30 44 c 0 1.105469 -0.894531 2 -2 2 s -2 -0.894531 -2 -2 s 0.894531 -2 2 -2 s 2 0.894531 2 2 z m 0 0"/>
        <path d="m 48 28 c 0 1.105469 -0.894531 2 -2 2 s -2 -0.894531 -2 -2 s 0.894531 -2 2 -2 s 2 0.894531 2 2 z m 0 0"/>
        <path d="m 86 28 c 0 1.105469 -0.894531 2 -2 2 s -2 -0.894531 -2 -2 s 0.894531 -2 2 -2 s 2 0.894531 2 2 z m 0 0"/>
        <path d="m 102 44 c 0 1.105469 -0.894531 2 -2 2 s -2 -0.894531 -2 -2 s 0.894531 -2 2 -2 s 2 0.894531 2 2 z m 0 0"/>
        <path d="m 102 60 c 0 1.105469 -0.894531 2 -2 2 s -2 -0.894531 -2 -2 s 0.894531 -2 2 -2 s 2 0.894531 2 2 z m 0 0"/>
        <path d="m 48 60 c 0 1.105469 -0.894531 2 -2 2 s -2 -0.894531 -2 -2 s 0.894531 -2 2 -2 s 2 0.894531 2 2 z m 0 0"/>
        <path d="m 66 60 c 0 1.105469 -0.894531 2 -2 2 s -2 -0.894531 -2 -2 s 0.894531 -2 2 -2 s 2 0.894531 2 2 z m 0 0"/>
        <path d="m 66 28 c 0 1.105469 -0.894531 2 -2 2 s -2 -0.894531 -2 -2 s 0.894531 -2 2 -2 s 2 0.894531 2 2 z m 0 0"/>
        <path d="m 66 96 c 0 1.105469 -0.894531 2 -2 2 s -2 -0.894531 -2 -2 s 0.894531 -2 2 -2 s 2 0.894531 2 2 z m 0 0"/>
    </g>
    <path d="m 64 25.5 c -1.378906 0 -2.5 1.121094 -2.5 2.5 v 32 s -0.035156 3.980469 -1.984375 7.882812 c -1.953125 3.902344 -5.347656 7.617188 -13.515625 7.617188 h -15.5 v -15.5 s 0.027344 -3.394531 1.929688 -6.773438 c 1.902343 -3.378906 5.3125 -6.726562 13.570312 -6.726562 c 1.378906 0 2.5 -1.121094 2.5 -2.5 s -1.121094 -2.5 -2.5 -2.5 c -9.742188 0 -15.332031 4.652344 -17.929688 9.273438 c -2.597656 4.621093 -2.570312 9.226562 -2.570312 9.226562 v 18 c 0 1.378906 1.121094 2.5 2.5 2.5 h 18 c 7.8125 0 12.949219 -3.339844 16.011719 -7.265625 c -0.324219 1.464844 -0.511719 3.046875 -0.511719 4.765625 v 18 c 0 1.378906 1.121094 2.5 2.5 2.5 s 2.5 -1.121094 2.5 -2.5 v -18 c 0 -8.074219 4.09375 -11.476562 8.527344 -13.46875 c 4.429687 -1.996094 8.972656 -2.03125 8.972656 -2.03125 h 13.5 v 33.5 c 0 0.042969 0.003906 0.089844 0.007812 0.132812 c 0.003907 0.089844 0.015626 0.175782 0.03125 0.261719 c 0.011719 0.089844 0.035157 0.175781 0.058594 0.261719 c 0.023438 0.085938 0.054688 0.167969 0.085938 0.25 c 0.035156 0.082031 0.070312 0.164062 0.113281 0.238281 c 0.042969 0.082031 0.089844 0.15625 0.140625 0.230469 c 0.023438 0.035156 0.050781 0.074219 0.074219 0.105469 c 0.082031 0.109375 0.171875 0.207031 0.269531 0.300781 c 0.03125 0.027344 0.0625 0.058594 0.097656 0.085938 c 0.035156 0.027343 0.066406 0.058593 0.101563 0.082031 c 0.179687 0.136719 0.371093 0.246093 0.574219 0.332031 c 0.125 0.050781 0.253906 0.089844 0.382812 0.117188 c 0.042969 0.011718 0.085938 0.019531 0.128906 0.027343 c 0.042969 0.007813 0.089844 0.015625 0.132813 0.023438 c 0.21875 0.023437 0.441406 0.023437 0.664062 -0.011719 c 0.042969 -0.003906 0.085938 -0.011719 0.128907 -0.019531 c 0.128906 -0.027344 0.257812 -0.066407 0.382812 -0.113281 c 0.042969 -0.015626 0.082031 -0.03125 0.125 -0.046876 c 0.039062 -0.019531 0.078125 -0.039062 0.117188 -0.058593 c 0.042968 -0.019531 0.082031 -0.039063 0.121093 -0.0625 c 0.113281 -0.066407 0.222657 -0.140625 0.328125 -0.222657 c 0.035156 -0.027343 0.070313 -0.054687 0.101563 -0.085937 c 0.097656 -0.089844 0.191406 -0.1875 0.273437 -0.289063 c 0.085938 -0.101562 0.160156 -0.214843 0.226563 -0.328124 c 0.042969 -0.078126 0.082031 -0.15625 0.121093 -0.238282 c 0.015626 -0.039062 0.03125 -0.082031 0.046876 -0.121094 c 0.050781 -0.125 0.085937 -0.253906 0.113281 -0.382812 c 0.019531 -0.089844 0.03125 -0.175781 0.039062 -0.261719 c 0.003907 -0.046875 0.007813 -0.089843 0.011719 -0.132812 c 0 -0.027344 0 -0.050781 0 -0.074219 v -36 c 0 -1.378906 -1.121094 -2.5 -2.5 -2.5 h -16 s -5.457031 -0.035156 -11.027344 2.46875 c -2.566406 1.15625 -5.199218 2.980469 -7.296875 5.570312 c 0.820313 -3.144531 0.824219 -5.539062 0.824219 -5.539062 v -32 c 0 -1.378906 -1.121094 -2.5 -2.5 -2.5 z m 0 0" fill="url(#b)"/>
    <g clip-path="url(#j)" mask="url(#f)">
        <g clip-path="url(#i)" mask="url(#g)">
            <path d="m 128 80.640625 v 47.359375 h -128 v -47.359375 z m 0 0" fill="url(#h)"/>
            <path d="m 13.308594 80.640625 l 47.355468 47.359375 h 21.214844 l -47.359375 -47.359375 z m 42.421875 0 l 47.363281 47.359375 h 21.214844 l -47.363282 -47.359375 z m 42.429687 0 l 29.839844 29.839844 v -21.210938 l -8.628906 -8.628906 z m -98.160156 7.90625 v 21.214844 l 18.238281 18.238281 h 21.214844 z m 0 0"/>
        </g>
    </g>
</svg>
